<svg width="62" height="62" viewBox="0 0 62 62" fill="none" xmlns="http://www.w3.org/2000/svg">
<g clip-path="url(#clip0_50_375)">
<path d="M51.1499 40.0928C48.244 40.0928 45.8799 42.4575 45.8799 45.3628C45.8799 48.2687 48.244 50.6328 51.1499 50.6328C54.0552 50.6328 56.4199 48.2687 56.4199 45.3628C56.4199 42.4575 54.0552 40.0928 51.1499 40.0928ZM51.1499 46.9128C50.295 46.9128 49.5999 46.2177 49.5999 45.3628C49.5999 44.5078 50.295 43.8128 51.1499 43.8128C52.0048 43.8128 52.6999 44.5078 52.6999 45.3628C52.6999 46.2177 52.0048 46.9128 51.1499 46.9128Z" fill="#1C9CF2"/>
<path d="M50.6451 18.186H41.5398C40.8547 18.186 40.2998 18.7416 40.2998 19.426V43.606C40.2998 44.2905 40.8547 44.846 41.5398 44.846H42.8549C43.4687 44.846 44.0124 44.4039 44.0917 43.7952C44.5784 40.0665 47.5526 37.7539 51.1504 37.7539C54.7482 37.7539 57.7224 40.0666 58.2091 43.7952C58.2884 44.404 58.8315 44.846 59.446 44.846H60.7597C61.4441 44.846 61.9997 44.2905 61.9997 43.606V31.516C61.9997 31.2247 61.8974 30.9431 61.7108 30.7206L51.5961 18.6306C51.3606 18.3491 51.0121 18.186 50.6451 18.186ZM42.7798 28.106V21.906C42.7798 21.2216 43.3347 20.666 44.0198 20.666H49.482C49.8496 20.666 50.1987 20.8297 50.4343 21.1124L55.6007 27.3124C56.2734 28.1202 55.6993 29.346 54.6478 29.346H44.0198C43.3347 29.346 42.7798 28.7912 42.7798 28.106Z" fill="#FF6633"/>
<path d="M1.24 44.8467H4.41507C5.02889 44.8467 5.5726 44.4046 5.65193 43.7959C6.13861 40.0671 9.11278 37.7546 12.7106 37.7546C16.3084 37.7546 19.2826 40.0672 19.7693 43.7959C19.8486 44.4047 20.3917 44.8467 21.0061 44.8467H36.58C37.2645 44.8467 37.82 44.2911 37.82 43.6067V12.6067C37.82 11.9223 37.2644 11.3667 36.58 11.3667H1.24C0.554859 11.3667 0 11.9223 0 12.6067V43.6067C0 44.2912 0.554859 44.8467 1.24 44.8467Z" fill="#1C9CF2"/>
<path d="M12.7104 40.0928C9.80453 40.0928 7.44043 42.4575 7.44043 45.3628C7.44043 48.2687 9.80453 50.6328 12.7104 50.6328C15.6157 50.6328 17.9804 48.2687 17.9804 45.3628C17.9804 42.4575 15.6157 40.0928 12.7104 40.0928ZM12.7104 46.9128C11.8555 46.9128 11.1604 46.2177 11.1604 45.3628C11.1604 44.5078 11.8555 43.8128 12.7104 43.8128C13.5654 43.8128 14.2604 44.5078 14.2604 45.3628C14.2604 46.2177 13.5654 46.9128 12.7104 46.9128Z" fill="#1C9CF2"/>
</g>
<defs>
<clipPath id="clip0_50_375">
<rect width="62" height="62" fill="white"/>
</clipPath>
</defs>
</svg>
