<svg width="62" height="62" viewBox="0 0 62 62" fill="none" xmlns="http://www.w3.org/2000/svg">
<path d="M62 4.60156H0V49.6688H37.5149V45.1107C35.4157 43.1368 34.1026 40.3356 34.1026 37.2335C34.1026 31.2687 38.9553 26.4159 44.9201 26.4159C50.8849 26.4159 55.7372 31.2687 55.7372 37.2335C55.7372 40.3356 54.4241 43.1368 52.3253 45.1107V49.6688H62V4.60156ZM49.2766 11.8729V15.5057H12.7234V11.8729H49.2766ZM7.26988 35.1257V31.4929H24.9406V35.1257H7.26988ZM24.9406 38.7647V42.3975H7.26988V38.7647H24.9406ZM54.7301 22.7775H7.26988V19.1446H54.7301V22.7775Z" fill="#1C9CF2"/>
<path d="M48.6922 57.4224V47.3716C47.5167 47.8101 46.2457 48.0504 44.9198 48.0504C43.5935 48.0504 42.3224 47.8101 41.1475 47.3716V57.4224L44.9198 55.5795L48.6922 57.4224Z" fill="#FF6633"/>
<path d="M37.7354 37.2336C37.7354 41.1951 40.9585 44.4178 44.9201 44.4178C48.8817 44.4178 52.1044 41.1951 52.1044 37.2336C52.1044 33.272 48.8817 30.0488 44.9201 30.0488C40.9585 30.0488 37.7354 33.272 37.7354 37.2336Z" fill="#FF6633"/>
</svg>
