<svg width="62" height="62" viewBox="0 0 62 62" fill="none" xmlns="http://www.w3.org/2000/svg">
<g clip-path="url(#clip0_50_385)">
<path d="M31 0C13.8792 0 0 13.8792 0 31C0 48.1208 13.8792 62 31 62C48.1208 62 62 48.1208 62 31C62 13.8792 48.1208 0 31 0ZM31 56.5508C16.9112 56.5508 5.44922 45.0888 5.44922 31C5.44922 16.9112 16.9112 5.44922 31 5.44922C45.0888 5.44922 56.5508 16.9112 56.5508 31C56.5508 45.0888 45.0888 56.5508 31 56.5508Z" fill="#FF6633"/>
<path d="M31 9.08203C18.9144 9.08203 9.08203 18.9144 9.08203 31C9.08203 43.0856 18.9144 52.918 31 52.918C43.0856 52.918 52.918 43.0856 52.918 31C52.918 18.9144 43.0856 9.08203 31 9.08203ZM32.8164 31.7524L20.6392 43.9295L18.0705 41.3608L29.1836 30.2476V14.5312H32.8164V31.7524Z" fill="#1C9CF2"/>
</g>
<defs>
<clipPath id="clip0_50_385">
<rect width="62" height="62" fill="white"/>
</clipPath>
</defs>
</svg>
