<svg width="180" height="49" viewBox="0 0 180 49" fill="none" xmlns="http://www.w3.org/2000/svg">
<path d="M1 1.20264H179V37.9679L168.609 47.5609H1V1.20264Z" stroke="#FF6633" stroke-width="2"/>
<path d="M40.7358 21.2166V28.6116H38.8696V19.6677H46.4741V28.6116H44.665V21.2166H40.7358ZM56.9097 24.0984C56.9097 25.0294 56.7214 25.844 56.3447 26.5422C55.9723 27.2362 55.4455 27.7758 54.7642 28.1609C54.0871 28.546 53.2915 28.7385 52.3774 28.7385C51.4422 28.7385 50.6382 28.5523 49.9653 28.1799C49.2925 27.8033 48.7762 27.268 48.4165 26.574C48.0568 25.88 47.877 25.0548 47.877 24.0984C47.877 23.142 48.0547 22.3232 48.4102 21.6418C48.7699 20.9605 49.2861 20.44 49.959 20.0803C50.6361 19.7164 51.4465 19.5344 52.3901 19.5344C53.3381 19.5344 54.1484 19.7185 54.8213 20.0867C55.4941 20.4506 56.0104 20.9732 56.3701 21.6545C56.7298 22.3359 56.9097 23.1505 56.9097 24.0984ZM54.999 24.0984C54.999 23.1335 54.7705 22.3782 54.3135 21.8323C53.8564 21.2821 53.2153 21.0071 52.3901 21.0071C51.5522 21.0071 50.9048 21.28 50.4478 21.8259C49.9907 22.3676 49.7622 23.1251 49.7622 24.0984C49.7622 24.7501 49.868 25.3129 50.0796 25.7869C50.2912 26.2608 50.5916 26.6269 50.981 26.885C51.3745 27.1389 51.84 27.2659 52.3774 27.2659C53.2153 27.2659 53.8607 26.9908 54.3135 26.4407C54.7705 25.8905 54.999 25.1098 54.999 24.0984ZM60.1978 24.7712V28.6116H58.3315V19.6677H60.2041V23.47C60.3141 23.47 60.4284 23.4382 60.5469 23.3748C60.6654 23.307 60.7881 23.2076 60.915 23.0764C61.1732 22.8014 61.499 22.3507 61.8926 21.7244L63.2002 19.6677H65.1045L63.4224 22.2385C62.8934 23.0426 62.5316 23.5165 62.3369 23.6604L65.4155 28.6116H63.3779L61.0039 24.5491C60.9193 24.6041 60.7944 24.6549 60.6294 24.7014C60.4644 24.748 60.3205 24.7712 60.1978 24.7712ZM68.3862 26.3264L67.5928 28.6116H65.7202L68.9829 19.6677H71.1919L74.4419 28.6116H72.5884L71.7949 26.3264H68.3862ZM70.0874 21.0452C70.0451 21.2144 69.9858 21.4176 69.9097 21.6545C69.8335 21.8915 69.7785 22.0587 69.7446 22.156L68.8052 24.9172H71.376L70.4111 22.0989C70.3519 21.9254 70.2969 21.7498 70.2461 21.572C70.1953 21.3943 70.1424 21.2187 70.0874 21.0452ZM78.8408 28.7385C77.8421 28.7385 77.0381 28.5396 76.4287 28.1418C75.8236 27.7398 75.375 27.1178 75.083 26.2756L76.7588 25.6853C77.1439 26.7559 77.8379 27.2913 78.8408 27.2913C79.3867 27.2913 79.8014 27.1791 80.085 26.9548C80.3685 26.7263 80.5103 26.4068 80.5103 25.9963C80.5103 25.5689 80.341 25.2621 80.0024 25.0759C79.6681 24.8855 79.1434 24.7903 78.4282 24.7903H78.0537V23.3494H78.4282C79.0672 23.3494 79.5391 23.2478 79.8438 23.0447C80.1484 22.8416 80.3008 22.5284 80.3008 22.1052C80.3008 21.7201 80.1696 21.426 79.9072 21.2229C79.6491 21.0198 79.2915 20.9182 78.8345 20.9182C78.3859 20.9182 78.0093 21.0494 77.7046 21.3118C77.3999 21.5699 77.1672 21.9613 77.0063 22.4861L75.3052 22.0989C75.8807 20.3935 77.0677 19.5408 78.8662 19.5408C79.5179 19.5408 80.0871 19.636 80.5737 19.8264C81.0604 20.0168 81.437 20.2877 81.7036 20.6389C81.9744 20.9859 82.1099 21.3964 82.1099 21.8704C82.1099 22.4163 81.9596 22.8712 81.6592 23.2351C81.3587 23.599 80.9165 23.8551 80.3325 24.0032C80.9715 24.0963 81.4645 24.3248 81.8115 24.6887C82.1628 25.0527 82.3384 25.5139 82.3384 26.0725C82.3384 26.6142 82.1945 27.086 81.9067 27.488C81.6232 27.8858 81.2191 28.1947 80.6943 28.4148C80.1738 28.6306 79.556 28.7385 78.8408 28.7385ZM85.9312 26.3264L85.1377 28.6116H83.2651L86.5278 19.6677H88.7368L91.9868 28.6116H90.1333L89.3398 26.3264H85.9312ZM87.6323 21.0452C87.59 21.2144 87.5308 21.4176 87.4546 21.6545C87.3784 21.8915 87.3234 22.0587 87.2896 22.156L86.3501 24.9172H88.9209L87.9561 22.0989C87.8968 21.9254 87.8418 21.7498 87.791 21.572C87.7402 21.3943 87.6873 21.2187 87.6323 21.0452ZM96.5952 21.115V28.6116H94.7227V21.115H91.8345V19.6677H99.4897V21.115H96.5952ZM108.516 25.8757C108.516 26.4132 108.383 26.8892 108.116 27.304C107.85 27.7144 107.469 28.0361 106.974 28.2688C106.479 28.4973 105.89 28.6116 105.209 28.6116H100.505V19.6677H102.378V23.2288H105.412C106.407 23.2288 107.173 23.4615 107.71 23.927C108.247 24.3883 108.516 25.0378 108.516 25.8757ZM106.625 25.9011C106.625 25.5076 106.476 25.205 106.18 24.9934C105.888 24.7776 105.45 24.6697 104.866 24.6697H102.378V27.1516H104.904C106.051 27.1516 106.625 26.7348 106.625 25.9011ZM120.761 27.1643V28.6116H113.467V19.6677H120.5V21.115H115.34V23.3621H120.113V24.8093H115.34V27.1643H120.761ZM122.138 28.6116V19.6677H123.947V27.0627H126.759V19.6677H128.568V27.0627H131.374V19.6677H133.183V27.0627H134.421V31.2014H132.834V28.6116H122.138ZM142.686 27.1643V28.6116H135.392V19.6677H142.425V21.115H137.265V23.3621H142.038V24.8093H137.265V27.1643H142.686Z" fill="white"/>
<path d="M40.7358 21.2166V19.2166H38.7358V21.2166H40.7358ZM40.7358 28.6116V30.6116H42.7358V28.6116H40.7358ZM38.8696 28.6116H36.8696V30.6116H38.8696V28.6116ZM38.8696 19.6677V17.6677H36.8696V19.6677H38.8696ZM46.4741 19.6677H48.4741V17.6677H46.4741V19.6677ZM46.4741 28.6116V30.6116H48.4741V28.6116H46.4741ZM44.665 28.6116H42.665V30.6116H44.665V28.6116ZM44.665 21.2166H46.665V19.2166H44.665V21.2166ZM38.7358 21.2166V28.6116H42.7358V21.2166H38.7358ZM40.7358 26.6116H38.8696V30.6116H40.7358V26.6116ZM40.8696 28.6116V19.6677H36.8696V28.6116H40.8696ZM38.8696 21.6677H46.4741V17.6677H38.8696V21.6677ZM44.4741 19.6677V28.6116H48.4741V19.6677H44.4741ZM46.4741 26.6116H44.665V30.6116H46.4741V26.6116ZM46.665 28.6116V21.2166H42.665V28.6116H46.665ZM44.665 19.2166H40.7358V23.2166H44.665V19.2166ZM56.3447 26.5422L54.5845 25.5928L54.5824 25.5966L56.3447 26.5422ZM54.7642 28.1609L53.78 26.4198L53.7754 26.4224L54.7642 28.1609ZM49.9653 28.1799L48.9884 29.9252L48.9969 29.9298L49.9653 28.1799ZM48.4102 21.6418L46.6415 20.7081L46.637 20.7167L48.4102 21.6418ZM49.959 20.0803L50.9019 21.8441L50.9059 21.842L49.959 20.0803ZM54.8213 20.0867L53.8613 21.8412L53.8698 21.8458L54.8213 20.0867ZM54.3135 21.8323L52.7751 23.1103L52.78 23.1161L54.3135 21.8323ZM50.4478 21.8259L51.9763 23.1157L51.9813 23.1098L50.4478 21.8259ZM50.981 26.885L49.8757 28.5519L49.8862 28.5588L49.8967 28.5656L50.981 26.885ZM54.3135 26.4407L52.7751 25.1626L52.7693 25.1697L54.3135 26.4407ZM54.9097 24.0984C54.9097 24.7555 54.7785 25.2331 54.5845 25.5928L58.105 27.4917C58.6642 26.4549 58.9097 25.3032 58.9097 24.0984H54.9097ZM54.5824 25.5966C54.3877 25.9594 54.1297 26.2221 53.78 26.4198L55.7483 29.902C56.7612 29.3295 57.5569 28.5131 58.107 27.4879L54.5824 25.5966ZM53.7754 26.4224C53.4482 26.6085 53.0054 26.7385 52.3774 26.7385V30.7385C53.5776 30.7385 54.7259 30.4835 55.7529 29.8994L53.7754 26.4224ZM52.3774 26.7385C51.7083 26.7385 51.2525 26.6065 50.9338 26.4301L48.9969 29.9298C50.0238 30.4982 51.1761 30.7385 52.3774 30.7385V26.7385ZM50.9422 26.4347C50.6155 26.2518 50.3746 26.0056 50.1922 25.6537L46.6408 27.4943C47.1778 28.5304 47.9695 29.3548 48.9885 29.9251L50.9422 26.4347ZM50.1922 25.6537C50.0092 25.3007 49.877 24.8051 49.877 24.0984H45.877C45.877 25.3045 46.1044 26.4592 46.6408 27.4943L50.1922 25.6537ZM49.877 24.0984C49.877 23.3868 50.0089 22.9012 50.1833 22.567L46.637 20.7167C46.1004 21.7451 45.877 22.8972 45.877 24.0984H49.877ZM50.1788 22.5756C50.3542 22.2434 50.5846 22.0137 50.9019 21.8441L49.0161 18.3165C47.9877 18.8663 47.1856 19.6776 46.6415 20.7081L50.1788 22.5756ZM50.9059 21.842C51.2328 21.6663 51.7026 21.5344 52.3901 21.5344V17.5344C51.1903 17.5344 50.0394 17.7665 49.0121 18.3187L50.9059 21.842ZM52.3901 21.5344C53.0807 21.5344 53.5444 21.6678 53.8613 21.8412L55.7813 18.3321C54.7524 17.7692 53.5954 17.5344 52.3901 17.5344V21.5344ZM53.8698 21.8458C54.192 22.0201 54.4251 22.2542 54.6015 22.5883L58.1388 20.7208C57.5957 19.6922 56.7963 18.8811 55.7728 18.3275L53.8698 21.8458ZM54.6015 22.5883C54.7781 22.9229 54.9097 23.402 54.9097 24.0984H58.9097C58.9097 22.8989 58.6815 21.7488 58.1388 20.7208L54.6015 22.5883ZM56.999 24.0984C56.999 22.831 56.6975 21.5643 55.847 20.5484L52.78 23.1161C52.8435 23.192 52.999 23.436 52.999 24.0984H56.999ZM55.8519 20.5542C54.9541 19.4736 53.7078 19.0071 52.3901 19.0071V23.0071C52.5804 23.0071 52.6711 23.0384 52.7013 23.0514C52.7237 23.0609 52.7434 23.0722 52.7751 23.1103L55.8519 20.5542ZM52.3901 19.0071C51.0764 19.0071 49.82 19.4602 48.9142 20.5421L51.9813 23.1098C52.0084 23.0773 52.0264 23.066 52.053 23.0547C52.0883 23.0398 52.1877 23.0071 52.3901 23.0071V19.0071ZM48.9192 20.5362C48.0609 21.5534 47.7622 22.8288 47.7622 24.0984H51.7622C51.7622 23.4214 51.9206 23.1818 51.9763 23.1157L48.9192 20.5362ZM47.7622 24.0984C47.7622 24.9615 47.9019 25.815 48.2533 26.6022L51.9059 24.9716C51.8341 24.8108 51.7622 24.5387 51.7622 24.0984H47.7622ZM48.2533 26.6022C48.6018 27.3829 49.1357 28.0612 49.8757 28.5519L52.0862 25.2181C52.0476 25.1925 51.9805 25.1388 51.9059 24.9716L48.2533 26.6022ZM49.8967 28.5656C50.6591 29.0575 51.5136 29.2659 52.3774 29.2659V25.2659C52.1664 25.2659 52.0899 25.2204 52.0652 25.2044L49.8967 28.5656ZM52.3774 29.2659C53.6961 29.2659 54.9564 28.8067 55.8577 27.7117L52.7693 25.1697C52.7436 25.2009 52.7283 25.2101 52.7057 25.2197C52.6742 25.2331 52.5783 25.2659 52.3774 25.2659V29.2659ZM55.8519 27.7187C56.7096 26.6862 56.999 25.3863 56.999 24.0984H52.999C52.999 24.8333 52.8314 25.0949 52.7751 25.1626L55.8519 27.7187ZM60.1978 24.7712V22.7712H58.1978V24.7712H60.1978ZM60.1978 28.6116V30.6116H62.1978V28.6116H60.1978ZM58.3315 28.6116H56.3315V30.6116H58.3315V28.6116ZM58.3315 19.6677V17.6677H56.3315V19.6677H58.3315ZM60.2041 19.6677H62.2041V17.6677H60.2041V19.6677ZM60.2041 23.47H58.2041V25.47H60.2041V23.47ZM60.5469 23.3748L61.4913 25.1377L61.5154 25.1248L61.5392 25.1112L60.5469 23.3748ZM60.915 23.0764L62.3522 24.4673L62.3629 24.4562L62.3734 24.445L60.915 23.0764ZM61.8926 21.7244L60.2048 20.6513L60.1992 20.6603L61.8926 21.7244ZM63.2002 19.6677V17.6677H62.1018L61.5124 18.5946L63.2002 19.6677ZM65.1045 19.6677L66.7781 20.7628L68.8032 17.6677H65.1045V19.6677ZM63.4224 22.2385L65.0932 23.3378L65.0959 23.3336L63.4224 22.2385ZM62.3369 23.6604L61.1481 22.052L59.6639 23.1491L60.6385 24.7165L62.3369 23.6604ZM65.4155 28.6116V30.6116H69.0142L67.114 27.5555L65.4155 28.6116ZM63.3779 28.6116L61.6512 29.6207L62.2302 30.6116H63.3779V28.6116ZM61.0039 24.5491L62.7307 23.54L61.6725 21.7291L59.9139 22.8722L61.0039 24.5491ZM58.1978 24.7712V28.6116H62.1978V24.7712H58.1978ZM60.1978 26.6116H58.3315V30.6116H60.1978V26.6116ZM60.3315 28.6116V19.6677H56.3315V28.6116H60.3315ZM58.3315 21.6677H60.2041V17.6677H58.3315V21.6677ZM58.2041 19.6677V23.47H62.2041V19.6677H58.2041ZM60.2041 25.47C60.7091 25.47 61.1461 25.3227 61.4913 25.1377L59.6024 21.6118C59.7107 21.5538 59.9192 21.47 60.2041 21.47V25.47ZM61.5392 25.1112C61.8661 24.9244 62.1353 24.6914 62.3522 24.4673L59.4778 21.6856C59.462 21.702 59.4587 21.7036 59.4686 21.6955C59.4784 21.6876 59.5068 21.6656 59.5546 21.6383L61.5392 25.1112ZM62.3734 24.445C62.7676 24.025 63.176 23.441 63.586 22.7885L60.1992 20.6603C59.8221 21.2604 59.5787 21.5777 59.4567 21.7078L62.3734 24.445ZM63.5803 22.7974L64.8879 20.7408L61.5124 18.5946L60.2048 20.6513L63.5803 22.7974ZM63.2002 21.6677H65.1045V17.6677H63.2002V21.6677ZM63.4309 18.5727L61.7488 21.1435L65.0959 23.3336L66.7781 20.7628L63.4309 18.5727ZM61.7515 21.1393C61.4992 21.5228 61.3053 21.799 61.1646 21.9834C61.0942 22.0756 61.0497 22.1282 61.0282 22.1521C60.9943 22.1897 61.0391 22.1327 61.1481 22.052L63.5257 25.2688C63.877 25.0091 64.1673 24.642 64.344 24.4106C64.565 24.121 64.8165 23.7583 65.0932 23.3378L61.7515 21.1393ZM60.6385 24.7165L63.7171 29.6677L67.114 27.5555L64.0354 22.6043L60.6385 24.7165ZM65.4155 26.6116H63.3779V30.6116H65.4155V26.6116ZM65.1047 27.6025L62.7307 23.54L59.2771 25.5582L61.6512 29.6207L65.1047 27.6025ZM59.9139 22.8722C60.0064 22.8121 60.0746 22.7834 60.0932 22.7758C60.1152 22.7669 60.1157 22.7683 60.0865 22.7765L61.1723 26.6263C61.4159 26.5576 61.7631 26.441 62.0939 26.226L59.9139 22.8722ZM60.0865 22.7765C60.065 22.7826 60.0631 22.7819 60.0783 22.7794C60.093 22.7771 60.1345 22.7712 60.1978 22.7712V26.7712C60.5606 26.7712 60.8949 26.7046 61.1723 26.6263L60.0865 22.7765ZM68.3862 26.3264V24.3264H66.9635L66.4969 25.6704L68.3862 26.3264ZM67.5928 28.6116V30.6116H69.0155L69.4821 29.2676L67.5928 28.6116ZM65.7202 28.6116L63.8413 27.9262L62.8617 30.6116H65.7202V28.6116ZM68.9829 19.6677V17.6677H67.5836L67.104 18.9823L68.9829 19.6677ZM71.1919 19.6677L73.0716 18.9847L72.5931 17.6677H71.1919V19.6677ZM74.4419 28.6116V30.6116H77.2966L76.3216 27.9285L74.4419 28.6116ZM72.5884 28.6116L70.699 29.2676L71.1657 30.6116H72.5884V28.6116ZM71.7949 26.3264L73.6843 25.6704L73.2176 24.3264H71.7949V26.3264ZM70.0874 21.0452L71.9939 20.4407L69.8597 13.7098L68.1471 20.5601L70.0874 21.0452ZM69.7446 22.156L67.8556 21.4989L67.8512 21.5118L69.7446 22.156ZM68.8052 24.9172L66.9118 24.273L66.0121 26.9172H68.8052V24.9172ZM71.376 24.9172V26.9172H74.1746L73.2682 24.2695L71.376 24.9172ZM70.4111 22.0989L68.5184 22.7452L68.5189 22.7467L70.4111 22.0989ZM66.4969 25.6704L65.7034 27.9555L69.4821 29.2676L70.2756 26.9824L66.4969 25.6704ZM67.5928 26.6116H65.7202V30.6116H67.5928V26.6116ZM67.5991 29.297L70.8618 20.3531L67.104 18.9823L63.8413 27.9262L67.5991 29.297ZM68.9829 21.6677H71.1919V17.6677H68.9829V21.6677ZM69.3122 20.3508L72.5622 29.2946L76.3216 27.9285L73.0716 18.9847L69.3122 20.3508ZM74.4419 26.6116H72.5884V30.6116H74.4419V26.6116ZM74.4777 27.9555L73.6843 25.6704L69.9056 26.9824L70.699 29.2676L74.4777 27.9555ZM71.7949 24.3264H68.3862V28.3264H71.7949V24.3264ZM68.1471 20.5601C68.1189 20.673 68.0735 20.8314 68.0056 21.0425L71.8137 22.2666C71.8982 22.0037 71.9713 21.7559 72.0277 21.5302L68.1471 20.5601ZM68.0056 21.0425C67.9294 21.2795 67.8809 21.4264 67.8556 21.499L71.6336 22.813C71.6761 22.6909 71.7376 22.5035 71.8137 22.2666L68.0056 21.0425ZM67.8512 21.5118L66.9118 24.273L70.6986 25.5614L71.638 22.8002L67.8512 21.5118ZM68.8052 26.9172H71.376V22.9172H68.8052V26.9172ZM73.2682 24.2695L72.3033 21.4511L68.5189 22.7467L69.4838 25.565L73.2682 24.2695ZM72.3038 21.4526C72.2556 21.3114 72.2107 21.168 72.1691 21.0226L68.323 22.1215C68.383 22.3315 68.4482 22.5394 68.5184 22.7452L72.3038 21.4526ZM72.1691 21.0226C72.1132 20.8267 72.0548 20.6327 71.9939 20.4407L68.1809 21.6497C68.2301 21.8046 68.2774 21.9619 68.323 22.1215L72.1691 21.0226ZM76.4287 28.1418L75.322 29.8077L75.3287 29.8122L75.3355 29.8166L76.4287 28.1418ZM75.083 26.2756L74.4185 24.3893L72.5414 25.0505L73.1934 26.9308L75.083 26.2756ZM76.7588 25.6853L78.6408 25.0084L77.9683 23.1388L76.0943 23.7989L76.7588 25.6853ZM80.085 26.9548L81.3258 28.5234L81.3329 28.5177L81.34 28.512L80.085 26.9548ZM80.0024 25.0759L79.0125 26.8138L79.0255 26.8212L79.0386 26.8284L80.0024 25.0759ZM78.0537 24.7903H76.0537V26.7903H78.0537V24.7903ZM78.0537 23.3494V21.3494H76.0537V23.3494H78.0537ZM79.9072 21.2229L78.6704 22.7946L78.6766 22.7995L78.6829 22.8043L79.9072 21.2229ZM77.7046 21.3118L78.9974 22.8377L79.0036 22.8325L79.0096 22.8273L77.7046 21.3118ZM77.0063 22.4861L76.5625 24.4362L78.3742 24.8486L78.9186 23.0721L77.0063 22.4861ZM75.3052 22.0989L73.4102 21.4594L72.7021 23.5575L74.8613 24.049L75.3052 22.0989ZM81.7036 20.6389L80.1105 21.8481L80.1187 21.8588L80.127 21.8695L81.7036 20.6389ZM80.3325 24.0032L79.8408 22.0646L80.0442 25.9823L80.3325 24.0032ZM81.8115 24.6887L80.364 26.0689L80.3724 26.0776L81.8115 24.6887ZM81.9067 27.488L80.2804 26.3239L80.2781 26.3272L81.9067 27.488ZM80.6943 28.4148L81.4604 30.2623L81.4678 30.2592L80.6943 28.4148ZM78.8408 26.7385C78.0904 26.7385 77.7061 26.5873 77.522 26.4671L75.3355 29.8166C76.3701 30.492 77.5938 30.7385 78.8408 30.7385V26.7385ZM77.5354 26.476C77.3712 26.3669 77.1545 26.145 76.9726 25.6204L73.1934 26.9308C73.5955 28.0905 74.2759 29.1128 75.322 29.8077L77.5354 26.476ZM75.7475 28.162L77.4233 27.5717L76.0943 23.7989L74.4185 24.3893L75.7475 28.162ZM74.8768 26.3622C75.1606 27.1512 75.6195 27.9126 76.3466 28.4734C77.093 29.0491 77.9641 29.2913 78.8408 29.2913V25.2913C78.7686 25.2913 78.7427 25.2818 78.7482 25.2835C78.7567 25.2862 78.7743 25.2943 78.7896 25.3061C78.8227 25.3316 78.7421 25.2901 78.6408 25.0084L74.8768 26.3622ZM78.8408 29.2913C79.6179 29.2913 80.5488 29.138 81.3258 28.5234L78.8442 25.3863C78.9511 25.3017 79.0334 25.2781 79.0392 25.2765C79.0417 25.2758 79.0278 25.2797 78.9937 25.2837C78.9597 25.2877 78.9095 25.2913 78.8408 25.2913V29.2913ZM81.34 28.512C82.1585 27.8524 82.5103 26.9248 82.5103 25.9963H78.5103C78.5103 25.9703 78.5153 25.869 78.5758 25.7327C78.6394 25.5894 78.7347 25.4743 78.8299 25.3976L81.34 28.512ZM82.5103 25.9963C82.5103 24.9342 82.0228 23.9046 80.9663 23.3235L79.0386 26.8284C78.9116 26.7585 78.7488 26.6232 78.6321 26.4118C78.5213 26.211 78.5103 26.0469 78.5103 25.9963H82.5103ZM80.9923 23.3381C80.1948 22.8838 79.2389 22.7903 78.4282 22.7903V26.7903C78.7037 26.7903 78.8886 26.8091 79.0011 26.8296C79.1205 26.8512 79.1015 26.8644 79.0125 26.8138L80.9923 23.3381ZM78.4282 22.7903H78.0537V26.7903H78.4282V22.7903ZM80.0537 24.7903V23.3494H76.0537V24.7903H80.0537ZM78.0537 25.3494H78.4282V21.3494H78.0537V25.3494ZM78.4282 25.3494C79.203 25.3494 80.1558 25.2404 80.9532 24.7088L78.7343 21.3806C78.8461 21.3061 78.9046 21.3042 78.8405 21.318C78.7791 21.3312 78.6488 21.3494 78.4282 21.3494V25.3494ZM80.9532 24.7088C81.9079 24.0723 82.3008 23.0761 82.3008 22.1052H78.3008C78.3008 22.0779 78.3061 21.9509 78.3881 21.7825C78.4755 21.6028 78.6068 21.4656 78.7343 21.3806L80.9532 24.7088ZM82.3008 22.1052C82.3008 21.2136 81.9656 20.2871 81.1316 19.6415L78.6829 22.8043C78.5614 22.7103 78.4488 22.5742 78.3759 22.4105C78.3069 22.2561 78.3008 22.1394 78.3008 22.1052H82.3008ZM81.144 19.6512C80.4181 19.0799 79.5674 18.9182 78.8345 18.9182V22.9182C78.9188 22.9182 78.9332 22.928 78.899 22.9183C78.8598 22.9072 78.7716 22.8742 78.6704 22.7946L81.144 19.6512ZM78.8345 18.9182C77.9662 18.9182 77.1097 19.1847 76.3995 19.7962L79.0096 22.8273C78.9732 22.8587 78.9244 22.8876 78.8734 22.9053C78.8256 22.922 78.8065 22.9182 78.8345 22.9182V18.9182ZM76.4118 19.7858C75.7246 20.3679 75.3266 21.1416 75.0941 21.9001L78.9186 23.0721C79.0077 22.7811 79.0752 22.7719 78.9974 22.8377L76.4118 19.7858ZM77.4502 20.536L75.749 20.1488L74.8613 24.049L76.5625 24.4362L77.4502 20.536ZM77.2002 22.7384C77.3856 22.1889 77.6121 21.9353 77.7939 21.8046C77.9756 21.6741 78.2877 21.5408 78.8662 21.5408V17.5408C77.6463 17.5408 76.4655 17.8338 75.4602 18.556C74.455 19.278 73.8003 20.3034 73.4102 21.4594L77.2002 22.7384ZM78.8662 21.5408C79.3279 21.5408 79.64 21.6087 79.8449 21.6889L81.3025 17.9639C80.5341 17.6632 79.7079 17.5408 78.8662 17.5408V21.5408ZM79.8449 21.6889C80.053 21.7703 80.1047 21.8404 80.1105 21.8481L83.2967 19.4297C82.7694 18.735 82.0678 18.2634 81.3025 17.9639L79.8449 21.6889ZM80.127 21.8695C80.1264 21.8687 80.1231 21.8642 80.1188 21.8563C80.1146 21.8484 80.1112 21.8403 80.109 21.8336C80.1068 21.827 80.1068 21.825 80.1075 21.8295C80.1082 21.8342 80.1099 21.8472 80.1099 21.8704H84.1099C84.1099 20.987 83.8471 20.1346 83.2802 19.4084L80.127 21.8695ZM80.1099 21.8704C80.1099 21.9152 80.1068 21.9464 80.1039 21.9658C80.101 21.9851 80.0981 21.9936 80.0981 21.9938C80.098 21.9941 80.0984 21.9928 80.0995 21.9903C80.1006 21.9877 80.1022 21.9845 80.1042 21.9807C80.1086 21.9727 80.1133 21.9661 80.1169 21.9618L83.2015 24.5084C83.8432 23.7311 84.1099 22.8043 84.1099 21.8704H80.1099ZM80.1169 21.9618C80.1302 21.9457 80.1324 21.9505 80.1001 21.9692C80.0643 21.99 79.985 22.028 79.8408 22.0646L80.8242 25.9418C81.7056 25.7182 82.5638 25.2808 83.2015 24.5084L80.1169 21.9618ZM80.0442 25.9823C80.2073 26.006 80.2986 26.0395 80.3404 26.0589C80.3778 26.0763 80.3772 26.0826 80.364 26.0689L83.259 23.3086C82.5251 22.5389 81.5752 22.1631 80.6209 22.0241L80.0442 25.9823ZM80.3724 26.0776C80.3709 26.076 80.3644 26.0689 80.3563 26.0562C80.3481 26.0434 80.3418 26.0304 80.3376 26.0193C80.3334 26.0084 80.3333 26.0047 80.3345 26.0112C80.3357 26.0181 80.3384 26.0377 80.3384 26.0725H84.3384C84.3384 25.0548 84.0007 24.077 83.2506 23.2998L80.3724 26.0776ZM80.3384 26.0725C80.3384 26.2386 80.3018 26.294 80.2804 26.3239L83.533 28.6521C84.0872 27.878 84.3384 26.9897 84.3384 26.0725H80.3384ZM80.2781 26.3272C80.244 26.375 80.16 26.4701 79.9209 26.5704L81.4678 30.2592C82.2781 29.9194 83.0024 29.3967 83.5354 28.6489L80.2781 26.3272ZM79.9283 26.5673C79.7064 26.6593 79.3611 26.7385 78.8408 26.7385V30.7385C79.7509 30.7385 80.6412 30.6019 81.4604 30.2623L79.9283 26.5673ZM85.9312 26.3264V24.3264H84.5085L84.0418 25.6704L85.9312 26.3264ZM85.1377 28.6116V30.6116H86.5604L87.027 29.2676L85.1377 28.6116ZM83.2651 28.6116L81.3863 27.9262L80.4066 30.6116H83.2651V28.6116ZM86.5278 19.6677V17.6677H85.1285L84.6489 18.9823L86.5278 19.6677ZM88.7368 19.6677L90.6166 18.9847L90.138 17.6677H88.7368V19.6677ZM91.9868 28.6116V30.6116H94.8415L93.8666 27.9285L91.9868 28.6116ZM90.1333 28.6116L88.244 29.2676L88.7106 30.6116H90.1333V28.6116ZM89.3398 26.3264L91.2292 25.6704L90.7625 24.3264H89.3398V26.3264ZM87.6323 21.0452L89.5388 20.4407L87.4046 13.7098L85.692 20.5601L87.6323 21.0452ZM87.2896 22.156L85.4005 21.4989L85.3961 21.5118L87.2896 22.156ZM86.3501 24.9172L84.4567 24.273L83.5571 26.9172H86.3501V24.9172ZM88.9209 24.9172V26.9172H91.7195L90.8131 24.2695L88.9209 24.9172ZM87.9561 22.0989L86.0634 22.7452L86.0639 22.7467L87.9561 22.0989ZM84.0418 25.6704L83.2483 27.9555L87.027 29.2676L87.8205 26.9824L84.0418 25.6704ZM85.1377 26.6116H83.2651V30.6116H85.1377V26.6116ZM85.144 29.297L88.4067 20.3531L84.6489 18.9823L81.3863 27.9262L85.144 29.297ZM86.5278 21.6677H88.7368V17.6677H86.5278V21.6677ZM86.8571 20.3508L90.1071 29.2946L93.8666 27.9285L90.6166 18.9847L86.8571 20.3508ZM91.9868 26.6116H90.1333V30.6116H91.9868V26.6116ZM92.0226 27.9555L91.2292 25.6704L87.4505 26.9824L88.244 29.2676L92.0226 27.9555ZM89.3398 24.3264H85.9312V28.3264H89.3398V24.3264ZM85.692 20.5601C85.6638 20.673 85.6184 20.8314 85.5505 21.0425L89.3586 22.2666C89.4431 22.0037 89.5162 21.7559 89.5726 21.5302L85.692 20.5601ZM85.5505 21.0425C85.4744 21.2795 85.4258 21.4264 85.4006 21.499L89.1785 22.813C89.221 22.6909 89.2825 22.5035 89.3586 22.2666L85.5505 21.0425ZM85.3961 21.5118L84.4567 24.273L88.2435 25.5614L89.183 22.8002L85.3961 21.5118ZM86.3501 26.9172H88.9209V22.9172H86.3501V26.9172ZM90.8131 24.2695L89.8482 21.4511L86.0639 22.7467L87.0287 25.565L90.8131 24.2695ZM89.8488 21.4526C89.8005 21.3114 89.7556 21.168 89.7141 21.0226L85.868 22.1215C85.928 22.3315 85.9931 22.5394 86.0634 22.7452L89.8488 21.4526ZM89.7141 21.0226C89.6581 20.8267 89.5997 20.6327 89.5388 20.4407L85.7259 21.6497C85.775 21.8046 85.8224 21.9619 85.868 22.1215L89.7141 21.0226ZM96.5952 21.115V19.115H94.5952V21.115H96.5952ZM96.5952 28.6116V30.6116H98.5952V28.6116H96.5952ZM94.7227 28.6116H92.7227V30.6116H94.7227V28.6116ZM94.7227 21.115H96.7227V19.115H94.7227V21.115ZM91.8345 21.115H89.8345V23.115H91.8345V21.115ZM91.8345 19.6677V17.6677H89.8345V19.6677H91.8345ZM99.4897 19.6677H101.49V17.6677H99.4897V19.6677ZM99.4897 21.115V23.115H101.49V21.115H99.4897ZM94.5952 21.115V28.6116H98.5952V21.115H94.5952ZM96.5952 26.6116H94.7227V30.6116H96.5952V26.6116ZM96.7227 28.6116V21.115H92.7227V28.6116H96.7227ZM94.7227 19.115H91.8345V23.115H94.7227V19.115ZM93.8345 21.115V19.6677H89.8345V21.115H93.8345ZM91.8345 21.6677H99.4897V17.6677H91.8345V21.6677ZM97.4897 19.6677V21.115H101.49V19.6677H97.4897ZM99.4897 19.115H96.5952V23.115H99.4897V19.115ZM108.116 27.304L109.794 28.3933L109.799 28.3855L108.116 27.304ZM106.974 28.2688L107.812 30.0848L107.824 30.0788L106.974 28.2688ZM100.505 28.6116H98.5054V30.6116H100.505V28.6116ZM100.505 19.6677V17.6677H98.5054V19.6677H100.505ZM102.378 19.6677H104.378V17.6677H102.378V19.6677ZM102.378 23.2288H100.378V25.2288H102.378V23.2288ZM107.71 23.927L106.401 25.4388L106.407 25.4447L107.71 23.927ZM106.18 24.9934L104.991 26.6018L105.004 26.6114L105.018 26.6209L106.18 24.9934ZM102.378 24.6697V22.6697H100.378V24.6697H102.378ZM102.378 27.1516H100.378V29.1516H102.378V27.1516ZM106.516 25.8757C106.516 26.0656 106.474 26.1593 106.434 26.2224L109.799 28.3855C110.291 27.6192 110.516 26.7607 110.516 25.8757H106.516ZM106.439 26.2146C106.399 26.2767 106.322 26.3654 106.123 26.4588L107.824 30.0788C108.616 29.7067 109.301 29.1521 109.793 28.3933L106.439 26.2146ZM106.136 26.4529C105.96 26.5338 105.671 26.6116 105.209 26.6116V30.6116C106.11 30.6116 106.997 30.4608 107.812 30.0847L106.136 26.4529ZM105.209 26.6116H100.505V30.6116H105.209V26.6116ZM102.505 28.6116V19.6677H98.5054V28.6116H102.505ZM100.505 21.6677H102.378V17.6677H100.505V21.6677ZM100.378 19.6677V23.2288H104.378V19.6677H100.378ZM102.378 25.2288H105.412V21.2288H102.378V25.2288ZM105.412 25.2288C106.116 25.2288 106.349 25.3939 106.401 25.4388L109.019 22.4152C107.996 21.5292 106.697 21.2288 105.412 21.2288V25.2288ZM106.407 25.4447C106.439 25.4722 106.453 25.4926 106.466 25.5247C106.483 25.5652 106.516 25.6698 106.516 25.8757H110.516C110.516 24.5722 110.075 23.3211 109.013 22.4093L106.407 25.4447ZM108.625 25.9011C108.625 24.923 108.212 23.9872 107.343 23.3659L105.018 26.6209C104.918 26.5497 104.801 26.4289 104.717 26.2583C104.636 26.0934 104.625 25.958 104.625 25.9011H108.625ZM107.369 23.3851C106.58 22.8019 105.638 22.6697 104.866 22.6697V26.6697C104.951 26.6697 105.017 26.6736 105.067 26.6789C105.116 26.6841 105.144 26.6901 105.154 26.6925C105.177 26.6981 105.103 26.6839 104.991 26.6018L107.369 23.3851ZM104.866 22.6697H102.378V26.6697H104.866V22.6697ZM100.378 24.6697V27.1516H104.378V24.6697H100.378ZM102.378 29.1516H104.904V25.1516H102.378V29.1516ZM104.904 29.1516C105.661 29.1516 106.589 29.0248 107.37 28.4567C108.27 27.8025 108.625 26.8298 108.625 25.9011H104.625C104.625 25.8816 104.628 25.7692 104.699 25.6146C104.775 25.4489 104.893 25.3125 105.018 25.2213C105.132 25.1387 105.208 25.1244 105.186 25.1297C105.163 25.1353 105.076 25.1516 104.904 25.1516V29.1516ZM120.761 27.1643H122.761V25.1643H120.761V27.1643ZM120.761 28.6116V30.6116H122.761V28.6116H120.761ZM113.467 28.6116H111.467V30.6116H113.467V28.6116ZM113.467 19.6677V17.6677H111.467V19.6677H113.467ZM120.5 19.6677H122.5V17.6677H120.5V19.6677ZM120.5 21.115V23.115H122.5V21.115H120.5ZM115.34 21.115V19.115H113.34V21.115H115.34ZM115.34 23.3621H113.34V25.3621H115.34V23.3621ZM120.113 23.3621H122.113V21.3621H120.113V23.3621ZM120.113 24.8093V26.8093H122.113V24.8093H120.113ZM115.34 24.8093V22.8093H113.34V24.8093H115.34ZM115.34 27.1643H113.34V29.1643H115.34V27.1643ZM118.761 27.1643V28.6116H122.761V27.1643H118.761ZM120.761 26.6116H113.467V30.6116H120.761V26.6116ZM115.467 28.6116V19.6677H111.467V28.6116H115.467ZM113.467 21.6677H120.5V17.6677H113.467V21.6677ZM118.5 19.6677V21.115H122.5V19.6677H118.5ZM120.5 19.115H115.34V23.115H120.5V19.115ZM113.34 21.115V23.3621H117.34V21.115H113.34ZM115.34 25.3621H120.113V21.3621H115.34V25.3621ZM118.113 23.3621V24.8093H122.113V23.3621H118.113ZM120.113 22.8093H115.34V26.8093H120.113V22.8093ZM113.34 24.8093V27.1643H117.34V24.8093H113.34ZM115.34 29.1643H120.761V25.1643H115.34V29.1643ZM122.138 28.6116H120.138V30.6116H122.138V28.6116ZM122.138 19.6677V17.6677H120.138V19.6677H122.138ZM123.947 19.6677H125.947V17.6677H123.947V19.6677ZM123.947 27.0627H121.947V29.0627H123.947V27.0627ZM126.759 27.0627V29.0627H128.759V27.0627H126.759ZM126.759 19.6677V17.6677H124.759V19.6677H126.759ZM128.568 19.6677H130.568V17.6677H128.568V19.6677ZM128.568 27.0627H126.568V29.0627H128.568V27.0627ZM131.374 27.0627V29.0627H133.374V27.0627H131.374ZM131.374 19.6677V17.6677H129.374V19.6677H131.374ZM133.183 19.6677H135.183V17.6677H133.183V19.6677ZM133.183 27.0627H131.183V29.0627H133.183V27.0627ZM134.421 27.0627H136.421V25.0627H134.421V27.0627ZM134.421 31.2014V33.2014H136.421V31.2014H134.421ZM132.834 31.2014H130.834V33.2014H132.834V31.2014ZM132.834 28.6116H134.834V26.6116H132.834V28.6116ZM124.138 28.6116V19.6677H120.138V28.6116H124.138ZM122.138 21.6677H123.947V17.6677H122.138V21.6677ZM121.947 19.6677V27.0627H125.947V19.6677H121.947ZM123.947 29.0627H126.759V25.0627H123.947V29.0627ZM128.759 27.0627V19.6677H124.759V27.0627H128.759ZM126.759 21.6677H128.568V17.6677H126.759V21.6677ZM126.568 19.6677V27.0627H130.568V19.6677H126.568ZM128.568 29.0627H131.374V25.0627H128.568V29.0627ZM133.374 27.0627V19.6677H129.374V27.0627H133.374ZM131.374 21.6677H133.183V17.6677H131.374V21.6677ZM131.183 19.6677V27.0627H135.183V19.6677H131.183ZM133.183 29.0627H134.421V25.0627H133.183V29.0627ZM132.421 27.0627V31.2014H136.421V27.0627H132.421ZM134.421 29.2014H132.834V33.2014H134.421V29.2014ZM134.834 31.2014V28.6116H130.834V31.2014H134.834ZM132.834 26.6116H122.138V30.6116H132.834V26.6116ZM142.686 27.1643H144.686V25.1643H142.686V27.1643ZM142.686 28.6116V30.6116H144.686V28.6116H142.686ZM135.392 28.6116H133.392V30.6116H135.392V28.6116ZM135.392 19.6677V17.6677H133.392V19.6677H135.392ZM142.425 19.6677H144.425V17.6677H142.425V19.6677ZM142.425 21.115V23.115H144.425V21.115H142.425ZM137.265 21.115V19.115H135.265V21.115H137.265ZM137.265 23.3621H135.265V25.3621H137.265V23.3621ZM142.038 23.3621H144.038V21.3621H142.038V23.3621ZM142.038 24.8093V26.8093H144.038V24.8093H142.038ZM137.265 24.8093V22.8093H135.265V24.8093H137.265ZM137.265 27.1643H135.265V29.1643H137.265V27.1643ZM140.686 27.1643V28.6116H144.686V27.1643H140.686ZM142.686 26.6116H135.392V30.6116H142.686V26.6116ZM137.392 28.6116V19.6677H133.392V28.6116H137.392ZM135.392 21.6677H142.425V17.6677H135.392V21.6677ZM140.425 19.6677V21.115H144.425V19.6677H140.425ZM142.425 19.115H137.265V23.115H142.425V19.115ZM135.265 21.115V23.3621H139.265V21.115H135.265ZM137.265 25.3621H142.038V21.3621H137.265V25.3621ZM140.038 23.3621V24.8093H144.038V23.3621H140.038ZM142.038 22.8093H137.265V26.8093H142.038V22.8093ZM135.265 24.8093V27.1643H139.265V24.8093H135.265ZM137.265 29.1643H142.686V25.1643H137.265V29.1643Z" fill="#FF6633"/>
</svg>
