<svg width="180" height="49" viewBox="0 0 180 49" fill="none" xmlns="http://www.w3.org/2000/svg">
<path d="M1 1.20264H179V37.9679L168.609 47.5609H1V1.20264Z" stroke="#1C9CF2" stroke-width="2"/>
<path d="M44.665 28.6116V21.2166H40.7358V28.6116H38.8696V19.6677H46.4741V28.6116H44.665ZM56.9097 24.0984C56.9097 25.0294 56.7256 25.8482 56.3574 26.5549C55.9893 27.2616 55.4624 27.8033 54.7769 28.1799C54.0913 28.5523 53.2915 28.7385 52.3774 28.7385C50.9725 28.7385 49.8701 28.3259 49.0703 27.5007C48.2747 26.6713 47.877 25.5372 47.877 24.0984C47.877 22.6638 48.2747 21.5445 49.0703 20.7405C49.8659 19.9364 50.9725 19.5344 52.3901 19.5344C53.8078 19.5344 54.9144 19.9407 55.71 20.7532C56.5098 21.5657 56.9097 22.6807 56.9097 24.0984ZM54.999 24.0984C54.999 23.1335 54.7705 22.3782 54.3135 21.8323C53.8564 21.2821 53.2153 21.0071 52.3901 21.0071C51.5522 21.0071 50.9048 21.28 50.4478 21.8259C49.9907 22.3676 49.7622 23.1251 49.7622 24.0984C49.7622 25.0802 49.995 25.8546 50.4604 26.4216C50.9302 26.9845 51.5692 27.2659 52.3774 27.2659C53.2153 27.2659 53.8607 26.9908 54.3135 26.4407C54.7705 25.8905 54.999 25.1098 54.999 24.0984ZM58.3315 19.6677H60.2041V23.47C60.4242 23.47 60.659 23.3409 60.9087 23.0828C61.1626 22.8204 61.4906 22.3676 61.8926 21.7244L63.2002 19.6677H65.1045L63.4224 22.2385C62.8976 23.0383 62.5358 23.5123 62.3369 23.6604L65.4155 28.6116H63.3779L61.0039 24.5491C60.9193 24.6041 60.7944 24.6549 60.6294 24.7014C60.4644 24.748 60.3205 24.7712 60.1978 24.7712V28.6116H58.3315V19.6677ZM72.5884 28.6116L71.7949 26.3264H68.3862L67.5928 28.6116H65.7202L68.9829 19.6677H71.1919L74.4419 28.6116H72.5884ZM70.0874 21.0452L70.0493 21.1848C70.007 21.3372 69.9562 21.5107 69.897 21.7053C69.8377 21.9 69.4738 22.9706 68.8052 24.9172H71.376L70.4937 22.3464L70.2207 21.4832L70.0874 21.0452ZM78.8408 28.7385C77.8421 28.7385 77.0381 28.5396 76.4287 28.1418C75.8236 27.7398 75.375 27.1178 75.083 26.2756L76.7588 25.6853C77.1481 26.7559 77.8421 27.2913 78.8408 27.2913C79.3867 27.2913 79.8014 27.1791 80.085 26.9548C80.3685 26.7263 80.5103 26.4068 80.5103 25.9963C80.5103 25.5689 80.341 25.2621 80.0024 25.0759C79.6681 24.8855 79.1434 24.7903 78.4282 24.7903H78.0537V23.3494H78.4282C79.0672 23.3494 79.5391 23.2478 79.8438 23.0447C80.1484 22.8416 80.3008 22.5284 80.3008 22.1052C80.3008 21.7201 80.1696 21.426 79.9072 21.2229C79.6491 21.0198 79.2915 20.9182 78.8345 20.9182C77.9373 20.9182 77.328 21.4408 77.0063 22.4861L75.3052 22.0989C75.5972 21.2314 76.0352 20.5881 76.6191 20.1692C77.2074 19.7502 77.9564 19.5408 78.8662 19.5408C79.8438 19.5408 80.6287 19.7524 81.2212 20.1755C81.8136 20.5945 82.1099 21.1594 82.1099 21.8704C82.1099 22.4163 81.9596 22.8712 81.6592 23.2351C81.3587 23.599 80.9165 23.8551 80.3325 24.0032C80.9715 24.0963 81.4645 24.3248 81.8115 24.6887C82.1628 25.0527 82.3384 25.5139 82.3384 26.0725C82.3384 26.885 82.0231 27.5325 81.3926 28.0149C80.762 28.4973 79.9115 28.7385 78.8408 28.7385ZM90.1333 28.6116L89.3398 26.3264H85.9312L85.1377 28.6116H83.2651L86.5278 19.6677H88.7368L91.9868 28.6116H90.1333ZM87.6323 21.0452L87.5942 21.1848C87.5519 21.3372 87.5011 21.5107 87.4419 21.7053C87.3826 21.9 87.0187 22.9706 86.3501 24.9172H88.9209L88.0386 22.3464L87.7656 21.4832L87.6323 21.0452ZM96.5952 21.115V28.6116H94.7227V21.115H91.8345V19.6677H99.4897V21.115H96.5952ZM108.516 25.8757C108.516 26.4174 108.385 26.8956 108.123 27.3103C107.864 27.7208 107.484 28.0403 106.98 28.2688C106.481 28.4973 105.89 28.6116 105.209 28.6116H100.505V19.6677H102.378V23.2288H105.412C106.407 23.2288 107.173 23.4615 107.71 23.927C108.247 24.3883 108.516 25.0378 108.516 25.8757ZM106.625 25.9011C106.625 25.5076 106.476 25.205 106.18 24.9934C105.888 24.7776 105.45 24.6697 104.866 24.6697H102.378V27.1516H104.904C106.051 27.1516 106.625 26.7348 106.625 25.9011ZM113.467 28.6116V19.6677H120.5V21.115H115.34V23.3621H120.113V24.8093H115.34V27.1643H120.761V28.6116H113.467ZM122.138 28.6116V19.6677H123.947V27.0627H126.759V19.6677H128.568V27.0627H131.374V19.6677H133.183V27.0627H134.421V31.2014H132.834V28.6116H122.138ZM135.392 28.6116V19.6677H142.425V21.115H137.265V23.3621H142.038V24.8093H137.265V27.1643H142.686V28.6116H135.392Z" fill="#1C9CF2"/>
</svg>
