<svg width="25" height="26" viewBox="0 0 25 26" fill="none" xmlns="http://www.w3.org/2000/svg">
<path fill-rule="evenodd" clip-rule="evenodd" d="M0.393351 6.85649L6.49491 1.1608C6.92616 0.65607 7.42148 0.573702 7.85585 1.07668C7.85585 1.07668 7.79804 4.9147 7.84648 4.9147C8.90741 4.9147 9.53866 5.11273 10.5027 5.46499C11.7751 5.93594 12.9488 6.69197 13.9527 7.68719C15.9465 9.65527 17.223 11.8967 17.223 15.0706C17.223 17.142 16.4059 16.3885 16.0637 15.6647C14.4465 12.256 11.4965 10.5333 7.81054 10.5333C7.76366 10.5333 7.81523 14.2942 7.81523 14.2942C7.73186 14.4016 7.63012 14.4891 7.51604 14.5516C7.40195 14.6141 7.27784 14.6502 7.15107 14.6579C7.0243 14.6656 6.89744 14.6446 6.77802 14.5963C6.6586 14.548 6.54905 14.4733 6.45585 14.3766L0.393351 8.68087C0.183547 8.43549 0.0664063 8.10866 0.0664062 7.76868C0.0664063 7.4287 0.183547 7.10187 0.393351 6.85649Z" fill="white"/>
<path fill-rule="evenodd" clip-rule="evenodd" d="M3.05312 14.8532V23.586H23.55V7.59421H15.4234C14.9938 7.04742 14.4563 6.33765 13.5188 5.98364H25V25.1983H1.6875V13.4143L3.05312 14.8532V14.8532Z" fill="white"/>
</svg>
