<svg width="25" height="170" viewBox="0 0 25 170" fill="none" xmlns="http://www.w3.org/2000/svg">
<path d="M14.7071 169.707C14.3166 170.098 13.6834 170.098 13.2929 169.707L6.92893 163.343C6.53841 162.953 6.53841 162.319 6.92893 161.929C7.31946 161.538 7.95262 161.538 8.34315 161.929L14 167.586L19.6569 161.929C20.0474 161.538 20.6805 161.538 21.0711 161.929C21.4616 162.319 21.4616 162.953 21.0711 163.343L14.7071 169.707ZM15 129L15 169H13L13 129H15Z" fill="#FF6633"/>
<path d="M15.7578 104.342C15.7578 103.295 15.2344 102.57 14.1875 102.168L14.7559 100.662C15.5527 100.986 16.1465 101.463 16.5371 102.092C16.9238 102.717 17.1172 103.467 17.1172 104.342C17.1172 105.225 16.9492 105.977 16.6133 106.598C16.2734 107.219 15.7832 107.693 15.1426 108.021C14.502 108.346 13.7324 108.508 12.834 108.508C11.9277 108.508 11.1621 108.352 10.5371 108.039C9.91211 107.727 9.4375 107.266 9.11328 106.656C8.78516 106.047 8.62109 105.301 8.62109 104.418C8.62109 103.449 8.81641 102.66 9.20703 102.051C9.59375 101.441 10.1641 101.014 10.918 100.768L11.334 102.291C10.9199 102.42 10.5918 102.674 10.3496 103.053C10.1035 103.428 9.98047 103.871 9.98047 104.383C9.98047 105.164 10.2227 105.758 10.707 106.164C11.1914 106.566 11.9004 106.768 12.834 106.768C13.4668 106.768 14 106.676 14.4336 106.492C14.8672 106.305 15.1973 106.031 15.4238 105.672C15.6465 105.309 15.7578 104.865 15.7578 104.342ZM13.4551 97.2027H17V98.9254H8.74414V97.1969H12.2539C12.2539 97.0953 12.2246 96.9898 12.166 96.8805C12.1035 96.7711 12.0117 96.6578 11.8906 96.5406C11.6367 96.3023 11.2207 96.0016 10.6426 95.6383L8.74414 94.4312V92.6734L11.1172 94.2262C11.8594 94.7145 12.2969 95.0484 12.4297 95.2281L17 92.3863V94.2672L13.25 96.4586C13.3008 96.5367 13.3477 96.652 13.3906 96.8043C13.4336 96.9566 13.4551 97.0895 13.4551 97.2027ZM11.3574 84.2102C11.8926 84.2102 12.3672 84.3332 12.7813 84.5793C13.1914 84.8215 13.5137 85.1672 13.748 85.6164C13.9785 86.0656 14.0938 86.6008 14.0938 87.2219V89.2727H17V91.0012H8.74414V87.2922C8.74414 86.3039 8.97266 85.5441 9.42969 85.0129C9.88281 84.4777 10.5254 84.2102 11.3574 84.2102ZM11.3867 85.9504C10.5195 85.9504 10.0859 86.4621 10.0859 87.4855V89.2727H12.7637V87.4387C12.7637 86.9621 12.6465 86.5949 12.4121 86.3371C12.1738 86.0793 11.832 85.9504 11.3867 85.9504ZM12.834 74.534C13.6934 74.534 14.4453 74.7078 15.0898 75.0555C15.7305 75.3992 16.2285 75.8855 16.584 76.5145C16.9395 77.1395 17.1172 77.8738 17.1172 78.7176C17.1172 79.5809 16.9453 80.323 16.6016 80.9441C16.2539 81.5652 15.7598 82.0418 15.1191 82.3738C14.4785 82.7059 13.7168 82.8719 12.834 82.8719C11.9512 82.8719 11.1953 82.7078 10.5664 82.3797C9.9375 82.0477 9.45703 81.5711 9.125 80.95C8.78906 80.325 8.62109 79.577 8.62109 78.7059C8.62109 77.8309 8.79102 77.0828 9.13086 76.4617C9.4668 75.8406 9.94922 75.3641 10.5781 75.032C11.207 74.7 11.959 74.534 12.834 74.534ZM12.834 76.2977C11.9434 76.2977 11.2461 76.5086 10.7422 76.9305C10.2344 77.3523 9.98047 77.9441 9.98047 78.7059C9.98047 79.4793 10.2324 80.077 10.7363 80.4988C11.2363 80.9207 11.9355 81.1316 12.834 81.1316C13.4355 81.1316 13.9551 81.034 14.3926 80.8387C14.8301 80.6434 15.168 80.366 15.4063 80.0066C15.6406 79.6434 15.7578 79.2137 15.7578 78.7176C15.7578 77.9441 15.5039 77.3484 14.9961 76.9305C14.4883 76.5086 13.7676 76.2977 12.834 76.2977ZM15.3594 71.0629C15.9844 71.2621 16.4297 71.5141 16.6953 71.8187C16.9609 72.1234 17.0938 72.5512 17.0938 73.102C17.0938 73.3676 17.0605 73.5609 16.9941 73.682H15.5469C15.5742 73.6312 15.5879 73.5473 15.5879 73.4301C15.5879 73.3168 15.5547 73.2152 15.4883 73.1254C15.418 73.0355 15.3145 72.9535 15.1777 72.8793C15.0527 72.8129 14.8965 72.7504 14.709 72.6918C14.5176 72.6293 14.291 72.5687 14.0293 72.5102C13.8691 72.475 13.6797 72.4379 13.4609 72.3988C13.2422 72.3598 12.9473 72.3109 12.5762 72.2523C12.2012 72.1898 11.707 72.1137 11.0938 72.0238C10.4805 71.934 9.69727 71.8227 8.74414 71.6898V66.1117H17V67.7758H10.1738V70.1605L12.2129 70.4477C13.6738 70.6586 14.7227 70.8637 15.3594 71.0629ZM14.4746 56.5059C14.9707 56.5059 15.4102 56.6289 15.793 56.875C16.1719 57.1211 16.4688 57.4727 16.6836 57.9297C16.8945 58.3867 17 58.9297 17 59.5586V63.9004H8.74414V62.1719H12.0313V59.3711C12.0313 58.4531 12.2461 57.7461 12.6758 57.25C13.1016 56.7539 13.7012 56.5059 14.4746 56.5059ZM14.498 58.252C14.1348 58.252 13.8555 58.3887 13.6602 58.6621C13.4609 58.9316 13.3613 59.3359 13.3613 59.875V62.1719H15.6523V59.8398C15.6523 58.7812 15.2676 58.252 14.498 58.252ZM10.0801 52.1676H17V53.8961H10.0801V56.5621H8.74414V49.4957H10.0801V52.1676ZM15.6641 41.2258H17V47.9582H8.74414V41.466H10.0801V46.2297H12.1543V41.8234H13.4902V46.2297H15.6641V41.2258ZM14.6445 28.0961C15.3945 28.0961 15.9746 28.3773 16.3848 28.9398C16.7949 29.5023 17 30.2836 17 31.2836V35.4145H8.74414V31.6352C8.74414 30.6273 8.91992 29.8656 9.27148 29.35C9.61914 28.8305 10.1348 28.5707 10.8184 28.5707C11.2871 28.5707 11.6836 28.7016 12.0078 28.9633C12.3281 29.2211 12.5449 29.6156 12.6582 30.1469C12.7363 29.4789 12.9473 28.9711 13.291 28.6234C13.6309 28.2719 14.082 28.0961 14.6445 28.0961ZM11.0527 30.3109C10.6816 30.3109 10.418 30.4301 10.2617 30.6684C10.1055 30.9027 10.0273 31.2523 10.0273 31.7172V33.6859H12.0723V31.7055C12.0723 31.2172 11.9883 30.8637 11.8203 30.6449C11.6484 30.4223 11.3926 30.3109 11.0527 30.3109ZM14.5098 29.8305C13.7363 29.8305 13.3496 30.3852 13.3496 31.4945V33.6859H15.7168V31.4301C15.7168 30.8754 15.6172 30.4711 15.418 30.2172C15.2148 29.9594 14.9121 29.8305 14.5098 29.8305ZM13.4609 24.4141H17V26.1426H8.74414V24.4141H12.0313V20.8164H8.74414V19.0879H17V20.8164H13.4609V24.4141ZM10.6426 11.3395L17 14.9078V16.8766H8.74414V15.3414H13.543C13.75 15.3414 13.9883 15.3453 14.2578 15.3531C14.5273 15.3609 14.8262 15.3727 15.1543 15.3883L8.74414 11.7965V9.85117H17V11.3863H12.1309C11.9785 11.3863 11.7793 11.3824 11.5332 11.3746C11.2832 11.3668 10.9863 11.3551 10.6426 11.3395ZM17.1172 4.71016C17.1172 5.63203 16.9336 6.37422 16.5664 6.93672C16.1953 7.49532 15.6211 7.90938 14.8438 8.17891L14.2988 6.63203C15.2871 6.27657 15.7813 5.63594 15.7813 4.71016C15.7813 4.20625 15.6777 3.82344 15.4707 3.56172C15.2598 3.3 14.9648 3.16914 14.5859 3.16914C14.1914 3.16914 13.9082 3.32539 13.7363 3.63789C13.5605 3.94649 13.4727 4.43086 13.4727 5.09102V5.43672H12.1426V5.09102C12.1426 4.50117 12.0488 4.06563 11.8613 3.78438C11.6738 3.50313 11.3848 3.3625 10.9941 3.3625C10.6387 3.3625 10.3672 3.4836 10.1797 3.72578C9.99219 3.96407 9.89844 4.29414 9.89844 4.71602C9.89844 5.13008 10.0195 5.47774 10.2617 5.75899C10.5 6.04024 10.8613 6.25508 11.3457 6.40352L10.9883 7.97383C9.41406 7.44258 8.62695 6.34688 8.62695 4.68672C8.62695 4.08516 8.71484 3.55977 8.89063 3.11055C9.06641 2.66133 9.31641 2.31367 9.64063 2.06758C9.96094 1.81758 10.3398 1.69258 10.7773 1.69258C11.2813 1.69258 11.7012 1.83125 12.0371 2.1086C12.373 2.38594 12.6094 2.79414 12.7461 3.33321C12.832 2.74336 13.043 2.28828 13.3789 1.96797C13.7148 1.64375 14.1406 1.48164 14.6563 1.48164C15.1563 1.48164 15.5918 1.61446 15.9629 1.88008C16.3301 2.1418 16.6152 2.51485 16.8184 2.99922C17.0176 3.47969 17.1172 4.05 17.1172 4.71016Z" fill="#FF6633"/>
<path d="M14.1875 102.168L13.7197 101.991L13.5442 102.456L14.0081 102.635L14.1875 102.168ZM14.7559 100.662L14.9443 100.199L14.4692 100.006L14.2881 100.486L14.7559 100.662ZM16.5371 102.092L16.9623 101.829L16.9618 101.828L16.5371 102.092ZM16.6133 106.598L17.0519 106.838L17.0531 106.836L16.6133 106.598ZM15.1426 108.021L15.3684 108.468L15.3705 108.467L15.1426 108.021ZM9.11328 106.656L9.5547 106.421L9.55352 106.419L9.11328 106.656ZM9.20703 102.051L9.62798 102.321L9.6292 102.319L9.20703 102.051ZM10.918 100.768L11.4003 100.636L11.262 100.129L10.7628 100.292L10.918 100.768ZM11.334 102.291L11.4826 102.768L11.9435 102.625L11.8163 102.159L11.334 102.291ZM10.3496 103.053L10.7677 103.327L10.7709 103.322L10.3496 103.053ZM10.707 106.164L10.3857 106.547L10.3875 106.549L10.707 106.164ZM14.4336 106.492L14.6286 106.953L14.632 106.951L14.4336 106.492ZM15.4238 105.672L15.8468 105.939L15.8501 105.933L15.4238 105.672ZM16.2578 104.342C16.2578 103.732 16.1039 103.182 15.7705 102.72C15.4391 102.262 14.9579 101.928 14.3669 101.701L14.0081 102.635C14.464 102.81 14.7679 103.04 14.9599 103.306C15.15 103.569 15.2578 103.905 15.2578 104.342H16.2578ZM14.6553 102.345L15.2236 100.839L14.2881 100.486L13.7197 101.991L14.6553 102.345ZM14.5674 101.125C15.2829 101.416 15.7862 101.83 16.1124 102.356L16.9618 101.828C16.5068 101.095 15.8226 100.556 14.9443 100.199L14.5674 101.125ZM16.1119 102.355C16.4411 102.887 16.6172 103.542 16.6172 104.342H17.6172C17.6172 103.392 17.4065 102.547 16.9623 101.829L16.1119 102.355ZM16.6172 104.342C16.6172 105.162 16.4612 105.828 16.1735 106.36L17.0531 106.836C17.4372 106.125 17.6172 105.287 17.6172 104.342H16.6172ZM16.1747 106.358C15.8838 106.889 15.4677 107.293 14.9146 107.576L15.3705 108.467C16.0987 108.094 16.6631 107.548 17.0519 106.838L16.1747 106.358ZM14.9168 107.575C14.3615 107.856 13.6732 108.008 12.834 108.008V109.008C13.7916 109.008 14.6424 108.835 15.3684 108.468L14.9168 107.575ZM12.834 108.008C11.9831 108.008 11.2988 107.861 10.7607 107.592L10.3135 108.486C11.0254 108.842 11.8724 109.008 12.834 109.008V108.008ZM10.7607 107.592C10.2274 107.325 9.82949 106.938 9.55469 106.421L8.67187 106.891C9.04551 107.593 9.59684 108.128 10.3135 108.486L10.7607 107.592ZM9.55352 106.419C9.27397 105.9 9.12109 105.24 9.12109 104.418H8.12109C8.12109 105.361 8.29635 106.194 8.67305 106.893L9.55352 106.419ZM9.12109 104.418C9.12109 103.513 9.3037 102.826 9.62797 102.321L8.78609 101.781C8.32911 102.494 8.12109 103.385 8.12109 104.418H9.12109ZM9.6292 102.319C9.94743 101.817 10.4179 101.457 11.0731 101.243L10.7628 100.292C9.91018 100.571 9.24007 101.066 8.78487 101.783L9.6292 102.319ZM10.4356 100.899L10.8516 102.423L11.8163 102.159L11.4003 100.636L10.4356 100.899ZM11.1854 101.814C10.6543 101.979 10.2315 102.309 9.92832 102.783L10.7709 103.322C10.9521 103.038 11.1856 102.861 11.4826 102.768L11.1854 101.814ZM9.93159 102.778C9.62475 103.246 9.48047 103.788 9.48047 104.383H10.4805C10.4805 103.954 10.5823 103.61 10.7676 103.327L9.93159 102.778ZM9.48047 104.383C9.48047 105.274 9.76185 106.024 10.3857 106.547L11.0283 105.781C10.6835 105.492 10.4805 105.054 10.4805 104.383H9.48047ZM10.3875 106.549C10.9962 107.054 11.8382 107.268 12.834 107.268V106.268C11.9626 106.268 11.3866 106.079 11.0265 105.779L10.3875 106.549ZM12.834 107.268C13.512 107.268 14.116 107.17 14.6285 106.953L14.2386 106.032C13.884 106.182 13.4216 106.268 12.834 106.268V107.268ZM14.632 106.951C15.1474 106.728 15.5605 106.393 15.8468 105.939L15.0009 105.405C14.834 105.67 14.587 105.881 14.2351 106.033L14.632 106.951ZM15.8501 105.933C16.1309 105.475 16.2578 104.936 16.2578 104.342H15.2578C15.2578 104.794 15.1621 105.142 14.9975 105.411L15.8501 105.933ZM13.4551 97.2027H12.9551V97.7027H13.4551V97.2027ZM17 97.2027H17.5V96.7027H17V97.2027ZM17 98.9254V99.4254H17.5V98.9254H17ZM8.74414 98.9254H8.24414V99.4254H8.74414V98.9254ZM8.74414 97.1969V96.6969H8.24414V97.1969H8.74414ZM12.2539 97.1969V97.6969H12.7539V97.1969H12.2539ZM12.166 96.8805L12.6069 96.6443L12.6001 96.6324L12.166 96.8805ZM11.8906 96.5406L12.2384 96.1813L12.2328 96.176L11.8906 96.5406ZM10.6426 95.6383L10.3743 96.0602L10.3766 96.0616L10.6426 95.6383ZM8.74414 94.4312H8.24414L8.24414 94.7059L8.47587 94.8532L8.74414 94.4312ZM8.74414 92.6734L9.0179 92.255L8.24414 91.7488V92.6734H8.74414ZM11.1172 94.2262L11.392 93.8085L11.391 93.8078L11.1172 94.2262ZM12.4297 95.2281L12.0276 95.5253L12.3019 95.8964L12.6937 95.6527L12.4297 95.2281ZM17 92.3863H17.5V91.4867L16.736 91.9617L17 92.3863ZM17 94.2672L17.2523 94.6989L17.5 94.5541V94.2672H17ZM13.25 96.4586L12.9977 96.0269L12.545 96.2915L12.8308 96.7311L13.25 96.4586ZM13.4551 97.7027H17V96.7027H13.4551V97.7027ZM16.5 97.2027V98.9254H17.5V97.2027H16.5ZM17 98.4254H8.74414V99.4254H17V98.4254ZM9.24414 98.9254V97.1969H8.24414V98.9254H9.24414ZM8.74414 97.6969H12.2539V96.6969H8.74414V97.6969ZM12.7539 97.1969C12.7539 96.9966 12.6957 96.8104 12.6068 96.6444L11.7253 97.1166C11.7535 97.1693 11.7539 97.194 11.7539 97.1969H12.7539ZM12.6001 96.6324C12.5079 96.4709 12.3827 96.321 12.2383 96.1813L11.5429 96.8999C11.6408 96.9946 11.6992 97.0713 11.7319 97.1285L12.6001 96.6324ZM12.2328 96.176C11.9426 95.9037 11.4933 95.5823 10.9086 95.2149L10.3766 96.0616C10.9481 96.4208 11.3308 96.701 11.5485 96.9052L12.2328 96.176ZM10.9108 95.2163L9.01241 94.0093L8.47587 94.8532L10.3743 96.0602L10.9108 95.2163ZM9.24414 94.4312V92.6734H8.24414V94.4312H9.24414ZM8.47038 93.0918L10.8434 94.6446L11.391 93.8078L9.0179 92.255L8.47038 93.0918ZM10.8424 94.6439C11.2088 94.885 11.493 95.0833 11.6986 95.2403C11.8014 95.3188 11.8804 95.3837 11.9383 95.4359C11.9671 95.4619 11.9888 95.4829 12.0045 95.4993C12.0122 95.5074 12.0179 95.5137 12.0219 95.5184C12.026 95.5231 12.0277 95.5254 12.0276 95.5253L12.8318 94.9309C12.7184 94.7776 12.5227 94.6114 12.3053 94.4454C12.0735 94.2684 11.7677 94.0557 11.392 93.8085L10.8424 94.6439ZM12.6937 95.6527L17.264 92.8109L16.736 91.9617L12.1657 94.8035L12.6937 95.6527ZM16.5 92.3863V94.2672H17.5V92.3863H16.5ZM16.7477 93.8355L12.9977 96.0269L13.5023 96.8903L17.2523 94.6989L16.7477 93.8355ZM12.8308 96.7311C12.8416 96.7477 12.872 96.8073 12.9094 96.94L13.8718 96.6686C13.8233 96.4966 13.76 96.3258 13.6692 96.1861L12.8308 96.7311ZM12.9094 96.94C12.9444 97.0643 12.9551 97.1495 12.9551 97.2027H13.9551C13.9551 97.0294 13.9227 96.849 13.8718 96.6686L12.9094 96.94ZM12.7813 84.5793L12.5258 85.0091L12.527 85.0098L12.7813 84.5793ZM13.748 85.6164L14.1929 85.3882L14.1913 85.3851L13.748 85.6164ZM14.0938 89.2727H13.5938V89.7727H14.0938V89.2727ZM17 89.2727H17.5V88.7727H17V89.2727ZM17 91.0012V91.5012H17.5V91.0012H17ZM8.74414 91.0012H8.24414V91.5012H8.74414V91.0012ZM9.42969 85.0129L9.80874 85.339L9.81127 85.336L9.42969 85.0129ZM10.0859 89.2727H9.58594V89.7727H10.0859V89.2727ZM12.7637 89.2727V89.7727H13.2637V89.2727H12.7637ZM12.4121 86.3371L12.7821 86.0008L12.7793 85.9977L12.4121 86.3371ZM11.3574 84.7102C11.8129 84.7102 12.1974 84.8139 12.5258 85.0091L13.0367 84.1495C12.537 83.8525 11.9722 83.7102 11.3574 83.7102V84.7102ZM12.527 85.0098C12.8516 85.2015 13.1107 85.4757 13.3048 85.8477L14.1913 85.3851C13.9167 84.8586 13.5312 84.4415 13.0355 84.1488L12.527 85.0098ZM13.3032 85.8446C13.49 86.2088 13.5938 86.6622 13.5938 87.2219H14.5938C14.5938 86.5394 14.467 85.9224 14.1929 85.3882L13.3032 85.8446ZM13.5938 87.2219V89.2727H14.5938V87.2219H13.5938ZM14.0938 89.7727H17V88.7727H14.0938V89.7727ZM16.5 89.2727V91.0012H17.5V89.2727H16.5ZM17 90.5012H8.74414V91.5012H17V90.5012ZM9.24414 91.0012V87.2922H8.24414V91.0012H9.24414ZM9.24414 87.2922C9.24414 86.375 9.45647 85.7484 9.80872 85.339L9.05065 84.6868C8.48884 85.3399 8.24414 86.2329 8.24414 87.2922H9.24414ZM9.81127 85.336C10.1514 84.9342 10.6421 84.7102 11.3574 84.7102V83.7102C10.4087 83.7102 9.61419 84.0212 9.0481 84.6898L9.81127 85.336ZM11.3867 85.4504C10.8524 85.4504 10.3677 85.612 10.0297 86.0109C9.70503 86.3941 9.58594 86.9151 9.58594 87.4855H10.5859C10.5859 87.0325 10.6836 86.786 10.7926 86.6574C10.8881 86.5447 11.0539 86.4504 11.3867 86.4504V85.4504ZM9.58594 87.4855V89.2727H10.5859V87.4855H9.58594ZM10.0859 89.7727H12.7637V88.7727H10.0859V89.7727ZM13.2637 89.2727V87.4387H12.2637V89.2727H13.2637ZM13.2637 87.4387C13.2637 86.8839 13.1267 86.3799 12.7821 86.0008L12.0421 86.6734C12.1663 86.81 12.2637 87.0403 12.2637 87.4387H13.2637ZM12.7793 85.9977C12.4223 85.6115 11.9316 85.4504 11.3867 85.4504V86.4504C11.7324 86.4504 11.9253 86.5471 12.0449 86.6765L12.7793 85.9977ZM15.0898 75.0555L14.8525 75.4955L14.8534 75.496L15.0898 75.0555ZM16.584 76.5145L16.1487 76.7605L16.1494 76.7616L16.584 76.5145ZM16.6016 80.9441L17.0379 81.1884L17.039 81.1863L16.6016 80.9441ZM10.5664 82.3797L10.333 82.8219L10.3351 82.823L10.5664 82.3797ZM9.125 80.95L9.56595 80.7143L9.56541 80.7133L9.125 80.95ZM9.13086 76.4617L9.5695 76.7017L9.57065 76.6996L9.13086 76.4617ZM10.7422 76.9305L11.0617 77.3151L11.0632 77.3138L10.7422 76.9305ZM10.7363 80.4988L11.0588 80.1167L11.0573 80.1155L10.7363 80.4988ZM15.4063 80.0066L15.823 80.283L15.8264 80.2777L15.4063 80.0066ZM14.9961 76.9305L14.6766 77.3151L14.6783 77.3165L14.9961 76.9305ZM12.834 75.034C13.6249 75.034 14.2926 75.1935 14.8525 75.4955L15.3272 74.6154C14.598 74.2221 13.7618 74.034 12.834 74.034V75.034ZM14.8534 75.496C15.4113 75.7954 15.8401 76.2145 16.1487 76.7605L17.0193 76.2684C16.6169 75.5566 16.0497 75.0031 15.3263 74.6149L14.8534 75.496ZM16.1494 76.7616C16.4551 77.2992 16.6172 77.9454 16.6172 78.7176H17.6172C17.6172 77.8023 17.4238 76.9797 17.0186 76.2673L16.1494 76.7616ZM16.6172 78.7176C16.6172 79.5143 16.4588 80.1695 16.1641 80.702L17.039 81.1863C17.4318 80.4766 17.6172 79.6474 17.6172 78.7176H16.6172ZM16.1653 80.6999C15.866 81.2345 15.4442 81.6422 14.8891 81.9299L15.3492 82.8177C16.0754 82.4414 16.6418 81.896 17.0379 81.1884L16.1653 80.6999ZM14.8891 81.9299C14.3337 82.2177 13.6544 82.3719 12.834 82.3719V83.3719C13.7792 83.3719 14.6233 83.194 15.3492 82.8177L14.8891 81.9299ZM12.834 82.3719C12.0124 82.3719 11.3398 82.2193 10.7977 81.9364L10.3351 82.823C11.0508 83.1964 11.89 83.3719 12.834 83.3719V82.3719ZM10.7998 81.9375C10.2582 81.6516 9.85046 81.2465 9.56595 80.7143L8.68405 81.1857C9.0636 81.8957 9.61677 82.4437 10.333 82.8218L10.7998 81.9375ZM9.56541 80.7133C9.27653 80.1758 9.12109 79.5129 9.12109 78.7059H8.12109C8.12109 79.641 8.30159 80.4742 8.68459 81.1867L9.56541 80.7133ZM9.12109 78.7059C9.12109 77.8952 9.27835 77.2338 9.56949 76.7017L8.69223 76.2217C8.30368 76.9318 8.12109 77.7665 8.12109 78.7059H9.12109ZM9.57065 76.6996C9.85917 76.1662 10.2695 75.7604 10.8116 75.4742L10.3447 74.5899C9.62897 74.9677 9.07443 75.5151 8.69107 76.2238L9.57065 76.6996ZM10.8116 75.4742C11.3538 75.1879 12.0219 75.034 12.834 75.034V74.034C11.8961 74.034 11.0603 74.2121 10.3447 74.5899L10.8116 75.4742ZM12.834 75.7977C11.8677 75.7977 11.0426 76.0268 10.4212 76.5471L11.0632 77.3138C11.4496 76.9903 12.019 76.7977 12.834 76.7977V75.7977ZM10.4227 76.5459C9.78223 77.0779 9.48047 77.821 9.48047 78.7059H10.4805C10.4805 78.0673 10.6865 77.6267 11.0617 77.3151L10.4227 76.5459ZM9.48047 78.7059C9.48047 79.5983 9.77746 80.3482 10.4154 80.8822L11.0573 80.1155C10.6874 79.8058 10.4805 79.3603 10.4805 78.7059H9.48047ZM10.4139 80.881C11.0328 81.4032 11.8615 81.6316 12.834 81.6316V80.6316C12.0096 80.6316 11.4399 80.4382 11.0588 80.1167L10.4139 80.881ZM12.834 81.6316C13.4884 81.6316 14.0806 81.5255 14.5964 81.2952L14.1888 80.3821C13.8296 80.5425 13.3827 80.6316 12.834 80.6316V81.6316ZM14.5964 81.2952C15.1106 81.0657 15.5266 80.73 15.823 80.2829L14.9895 79.7303C14.8094 80.002 14.5496 80.221 14.1888 80.3821L14.5964 81.2952ZM15.8264 80.2777C16.1203 79.8222 16.2578 79.2953 16.2578 78.7176H15.2578C15.2578 79.1321 15.161 79.4645 14.9861 79.7356L15.8264 80.2777ZM16.2578 78.7176C16.2578 77.8239 15.9579 77.0745 15.3138 76.5444L14.6783 77.3165C15.0499 77.6224 15.2578 78.0643 15.2578 78.7176H16.2578ZM15.3156 76.5459C14.6872 76.0238 13.8367 75.7977 12.834 75.7977V76.7977C13.6985 76.7977 14.2894 76.9934 14.6766 77.3151L15.3156 76.5459ZM15.3594 71.0629L15.5112 70.5865L15.5087 70.5857L15.3594 71.0629ZM16.9941 73.682V74.182H17.2902L17.4325 73.9224L16.9941 73.682ZM15.5469 73.682L15.1066 73.445L14.7098 74.182H15.5469V73.682ZM15.4883 73.1254L15.8905 72.8281L15.882 72.8172L15.4883 73.1254ZM15.1777 72.8793L15.4163 72.4399L15.4123 72.4377L15.1777 72.8793ZM14.709 72.6918L14.5538 73.1671L14.5598 73.169L14.709 72.6918ZM14.0293 72.5102L14.1385 72.0222L14.1365 72.0218L14.0293 72.5102ZM12.5762 72.2523L12.494 72.7456L12.4982 72.7462L12.5762 72.2523ZM8.74414 71.6898H8.24414V72.125L8.67514 72.1851L8.74414 71.6898ZM8.74414 66.1117V65.6117H8.24414V66.1117H8.74414ZM17 66.1117H17.5V65.6117H17V66.1117ZM17 67.7758V68.2758H17.5V67.7758H17ZM10.1738 67.7758V67.2758H9.67383V67.7758H10.1738ZM10.1738 70.1605H9.67383V70.5951L10.1041 70.6557L10.1738 70.1605ZM12.2129 70.4477L12.2843 69.9528L12.2826 69.9525L12.2129 70.4477ZM15.2075 71.5393C15.7943 71.7263 16.1394 71.942 16.3184 72.1473L17.0722 71.4902C16.7199 71.0861 16.1745 70.7979 15.5112 70.5865L15.2075 71.5393ZM16.3184 72.1473C16.4799 72.3325 16.5938 72.628 16.5938 73.102H17.5938C17.5938 72.4744 17.442 71.9144 17.0722 71.4902L16.3184 72.1473ZM16.5938 73.102C16.5938 73.2156 16.5865 73.3007 16.5761 73.3616C16.5652 73.4247 16.5537 73.4454 16.5557 73.4416L17.4325 73.9224C17.5618 73.6867 17.5938 73.3874 17.5938 73.102H16.5938ZM16.9941 73.182H15.5469V74.182H16.9941V73.182ZM15.9871 73.9191C16.0768 73.7525 16.0879 73.5612 16.0879 73.4301H15.0879C15.0879 73.4498 15.0873 73.4656 15.0865 73.4778C15.0856 73.4902 15.0846 73.4975 15.0841 73.5006C15.0836 73.5039 15.0839 73.5005 15.0865 73.4921C15.089 73.484 15.0948 73.467 15.1066 73.445L15.9871 73.9191ZM16.0879 73.4301C16.0879 73.2114 16.0213 73.0054 15.8904 72.8282L15.0862 73.4226C15.087 73.4237 15.0876 73.4245 15.0879 73.425C15.0882 73.4255 15.0883 73.4258 15.0883 73.4258C15.0883 73.4258 15.0882 73.4256 15.0881 73.4253C15.088 73.425 15.0879 73.4247 15.0877 73.4243C15.0875 73.4235 15.0875 73.4232 15.0875 73.4237C15.0876 73.4242 15.0879 73.4263 15.0879 73.4301H16.0879ZM15.882 72.8172C15.7572 72.6577 15.5926 72.5356 15.4163 72.4399L14.9392 73.3187C15.0363 73.3714 15.0788 73.4134 15.0945 73.4335L15.882 72.8172ZM15.4123 72.4377C15.2518 72.3525 15.0647 72.2791 14.8581 72.2146L14.5598 73.169C14.7283 73.2217 14.8537 73.2733 14.9432 73.3209L15.4123 72.4377ZM14.8642 72.2165C14.6537 72.1478 14.411 72.0832 14.1385 72.0222L13.9201 72.9981C14.171 73.0543 14.3815 73.1108 14.5538 73.1671L14.8642 72.2165ZM14.1365 72.0218C13.9681 71.9848 13.7719 71.9465 13.5488 71.9066L13.373 72.891C13.5874 72.9293 13.7701 72.9652 13.9221 72.9985L14.1365 72.0218ZM13.5488 71.9066C13.3253 71.8667 13.0266 71.8173 12.6542 71.7585L12.4982 72.7462C12.8679 72.8046 13.1591 72.8528 13.373 72.891L13.5488 71.9066ZM12.6584 71.7591C12.2788 71.6959 11.781 71.6192 11.1662 71.5291L11.0213 72.5185C11.6331 72.6082 12.1236 72.6838 12.494 72.7455L12.6584 71.7591ZM11.1662 71.5291C10.5513 71.439 9.76687 71.3275 8.81315 71.1946L8.67514 72.1851C9.62766 72.3178 10.4096 72.4289 11.0213 72.5185L11.1662 71.5291ZM9.24414 71.6898V66.1117H8.24414V71.6898H9.24414ZM8.74414 66.6117H17V65.6117H8.74414V66.6117ZM16.5 66.1117V67.7758H17.5V66.1117H16.5ZM17 67.2758H10.1738V68.2758H17V67.2758ZM9.67383 67.7758V70.1605H10.6738V67.7758H9.67383ZM10.1041 70.6557L12.1432 70.9428L12.2826 69.9525L10.2435 69.6654L10.1041 70.6557ZM12.1414 70.9425C13.5998 71.1531 14.6144 71.3537 15.2101 71.5401L15.5087 70.5857C14.8309 70.3736 13.7479 70.1641 12.2843 69.9528L12.1414 70.9425ZM15.793 56.875L16.0653 56.4557L16.0633 56.4544L15.793 56.875ZM16.6836 57.9297L17.1376 57.7202L17.1361 57.717L16.6836 57.9297ZM17 63.9004V64.4004H17.5V63.9004H17ZM8.74414 63.9004H8.24414V64.4004H8.74414V63.9004ZM8.74414 62.1719V61.6719H8.24414V62.1719H8.74414ZM12.0313 62.1719V62.6719H12.5313V62.1719H12.0313ZM12.6758 57.25L13.0537 57.5774L13.0552 57.5756L12.6758 57.25ZM13.6602 58.6621L14.0623 58.9593L14.067 58.9527L13.6602 58.6621ZM13.3613 62.1719H12.8613V62.6719H13.3613V62.1719ZM15.6523 62.1719V62.6719H16.1523V62.1719H15.6523ZM14.4746 57.0059C14.8838 57.0059 15.2277 57.106 15.5226 57.2956L16.0633 56.4544C15.5926 56.1518 15.0576 56.0059 14.4746 56.0059V57.0059ZM15.5206 57.2943C15.8125 57.4839 16.0511 57.7595 16.2311 58.1424L17.1361 57.717C16.8864 57.1859 16.5313 56.7583 16.0653 56.4557L15.5206 57.2943ZM16.2296 58.1392C16.4037 58.5163 16.5 58.9845 16.5 59.5586H17.5C17.5 58.8749 17.3854 58.2571 17.1376 57.7202L16.2296 58.1392ZM16.5 59.5586V63.9004H17.5V59.5586H16.5ZM17 63.4004H8.74414V64.4004H17V63.4004ZM9.24414 63.9004V62.1719H8.24414V63.9004H9.24414ZM8.74414 62.6719H12.0313V61.6719H8.74414V62.6719ZM12.5313 62.1719V59.3711H11.5313V62.1719H12.5313ZM12.5313 59.3711C12.5313 58.5257 12.7292 57.9521 13.0537 57.5774L12.2978 56.9226C11.763 57.5401 11.5313 58.3805 11.5313 59.3711H12.5313ZM13.0552 57.5756C13.3684 57.2108 13.8176 57.0059 14.4746 57.0059V56.0059C13.5848 56.0059 12.8348 56.297 12.2964 56.9244L13.0552 57.5756ZM14.498 57.752C13.9886 57.752 13.551 57.9547 13.2533 58.3715L14.067 58.9527C14.1599 58.8227 14.2809 58.752 14.498 58.752V57.752ZM13.2581 58.3649C12.967 58.7587 12.8613 59.289 12.8613 59.875H13.8613C13.8613 59.3829 13.9549 59.1046 14.0622 58.9593L13.2581 58.3649ZM12.8613 59.875V62.1719H13.8613V59.875H12.8613ZM13.3613 62.6719H15.6523V61.6719H13.3613V62.6719ZM16.1523 62.1719V59.8398H15.1523V62.1719H16.1523ZM16.1523 59.8398C16.1523 59.2648 16.0505 58.7433 15.7682 58.3549C15.4644 57.937 15.0108 57.752 14.498 57.752V58.752C14.7548 58.752 14.8784 58.8316 14.9593 58.9429C15.0618 59.0839 15.1523 59.3562 15.1523 59.8398H16.1523ZM10.0801 52.1676H9.58008V52.6676H10.0801V52.1676ZM17 52.1676H17.5V51.6676H17V52.1676ZM17 53.8961V54.3961H17.5V53.8961H17ZM10.0801 53.8961V53.3961H9.58008V53.8961H10.0801ZM10.0801 56.5621V57.0621H10.5801V56.5621H10.0801ZM8.74414 56.5621H8.24414V57.0621H8.74414V56.5621ZM8.74414 49.4957V48.9957H8.24414V49.4957H8.74414ZM10.0801 49.4957H10.5801V48.9957H10.0801V49.4957ZM10.0801 52.6676H17V51.6676H10.0801V52.6676ZM16.5 52.1676V53.8961H17.5V52.1676H16.5ZM17 53.3961H10.0801V54.3961H17V53.3961ZM9.58008 53.8961V56.5621H10.5801V53.8961H9.58008ZM10.0801 56.0621H8.74414V57.0621H10.0801V56.0621ZM9.24414 56.5621V49.4957H8.24414V56.5621H9.24414ZM8.74414 49.9957H10.0801V48.9957H8.74414V49.9957ZM9.58008 49.4957V52.1676H10.5801V49.4957H9.58008ZM15.6641 41.2258V40.7258H15.1641V41.2258H15.6641ZM17 41.2258H17.5V40.7258H17V41.2258ZM17 47.9582V48.4582H17.5V47.9582H17ZM8.74414 47.9582H8.24414V48.4582H8.74414V47.9582ZM8.74414 41.466V40.966H8.24414V41.466H8.74414ZM10.0801 41.466H10.5801V40.966H10.0801V41.466ZM10.0801 46.2297H9.58008V46.7297H10.0801V46.2297ZM12.1543 46.2297V46.7297H12.6543V46.2297H12.1543ZM12.1543 41.8234V41.3234H11.6543V41.8234H12.1543ZM13.4902 41.8234H13.9902V41.3234H13.4902V41.8234ZM13.4902 46.2297H12.9902V46.7297H13.4902V46.2297ZM15.6641 46.2297V46.7297H16.1641V46.2297H15.6641ZM15.6641 41.7258H17V40.7258H15.6641V41.7258ZM16.5 41.2258V47.9582H17.5V41.2258H16.5ZM17 47.4582H8.74414V48.4582H17V47.4582ZM9.24414 47.9582V41.466H8.24414V47.9582H9.24414ZM8.74414 41.966H10.0801V40.966H8.74414V41.966ZM9.58008 41.466V46.2297H10.5801V41.466H9.58008ZM10.0801 46.7297H12.1543V45.7297H10.0801V46.7297ZM12.6543 46.2297V41.8234H11.6543V46.2297H12.6543ZM12.1543 42.3234H13.4902V41.3234H12.1543V42.3234ZM12.9902 41.8234V46.2297H13.9902V41.8234H12.9902ZM13.4902 46.7297H15.6641V45.7297H13.4902V46.7297ZM16.1641 46.2297V41.2258H15.1641V46.2297H16.1641ZM17 35.4145V35.9145H17.5V35.4145H17ZM8.74414 35.4145H8.24414V35.9145H8.74414V35.4145ZM9.27148 29.35L9.68461 29.6317L9.68703 29.6281L9.27148 29.35ZM12.0078 28.9633L11.6938 29.3523L11.6943 29.3528L12.0078 28.9633ZM12.6582 30.1469L12.1692 30.2511L13.1548 30.205L12.6582 30.1469ZM13.291 28.6234L13.6466 28.975L13.6505 28.9709L13.291 28.6234ZM10.2617 30.6684L10.6778 30.9457L10.6798 30.9425L10.2617 30.6684ZM10.0273 33.6859H9.52734V34.1859H10.0273V33.6859ZM12.0723 33.6859V34.1859H12.5723V33.6859H12.0723ZM11.8203 30.6449L12.2169 30.3404L12.2161 30.3394L11.8203 30.6449ZM13.3496 33.6859H12.8496V34.1859H13.3496V33.6859ZM15.7168 33.6859V34.1859H16.2168V33.6859H15.7168ZM15.418 30.2172L15.8113 29.9085L15.8107 29.9077L15.418 30.2172ZM14.6445 28.5961C15.2492 28.5961 15.6729 28.8122 15.9808 29.2344L16.7888 28.6453C16.2763 27.9425 15.5399 27.5961 14.6445 27.5961V28.5961ZM15.9808 29.2344C16.3066 29.6813 16.5 30.345 16.5 31.2836H17.5C17.5 30.2222 17.2832 29.3234 16.7888 28.6453L15.9808 29.2344ZM16.5 31.2836V35.4145H17.5V31.2836H16.5ZM17 34.9145H8.74414V35.9145H17V34.9145ZM9.24414 35.4145V31.6352H8.24414V35.4145H9.24414ZM9.24414 31.6352C9.24414 30.6714 9.41474 30.0275 9.6846 29.6317L8.85837 29.0683C8.4251 29.7038 8.24414 30.5833 8.24414 31.6352H9.24414ZM9.68703 29.6281C9.93208 29.2619 10.2832 29.0707 10.8184 29.0707V28.0707C9.98633 28.0707 9.3062 28.3991 8.85594 29.0719L9.68703 29.6281ZM10.8184 29.0707C11.1879 29.0707 11.4696 29.1714 11.6938 29.3523L12.3219 28.5742C11.8976 28.2318 11.3863 28.0707 10.8184 28.0707V29.0707ZM11.6943 29.3528C11.8999 29.5182 12.0721 29.796 12.1692 30.2511L13.1472 30.0426C13.0177 29.4353 12.7564 28.9239 12.3213 28.5738L11.6943 29.3528ZM13.1548 30.205C13.2248 29.6067 13.4061 29.2182 13.6466 28.975L12.9355 28.2719C12.4884 28.724 12.2479 29.3511 12.1616 30.0888L13.1548 30.205ZM13.6505 28.9709C13.8817 28.7317 14.1954 28.5961 14.6445 28.5961V27.5961C13.9687 27.5961 13.38 27.812 12.9315 28.2759L13.6505 28.9709ZM11.0527 29.8109C10.5702 29.8109 10.1197 29.9731 9.8436 30.3942L10.6798 30.9425C10.7162 30.8871 10.793 30.8109 11.0527 30.8109V29.8109ZM9.84569 30.391C9.60957 30.7452 9.52734 31.2116 9.52734 31.7172H10.5273C10.5273 31.2931 10.6014 31.0603 10.6777 30.9457L9.84569 30.391ZM9.52734 31.7172V33.6859H10.5273V31.7172H9.52734ZM10.0273 34.1859H12.0723V33.1859H10.0273V34.1859ZM12.5723 33.6859V31.7055H11.5723V33.6859H12.5723ZM12.5723 31.7055C12.5723 31.1825 12.4867 30.6917 12.2169 30.3404L11.4237 30.9494C11.4899 31.0356 11.5723 31.2519 11.5723 31.7055H12.5723ZM12.2161 30.3394C11.9295 29.9682 11.5115 29.8109 11.0527 29.8109V30.8109C11.2736 30.8109 11.3673 30.8764 11.4245 30.9504L12.2161 30.3394ZM14.5098 29.3305C13.9867 29.3305 13.5309 29.5282 13.2295 29.9605C12.951 30.36 12.8496 30.8971 12.8496 31.4945H13.8496C13.8496 30.9826 13.9416 30.6876 14.0498 30.5324C14.1351 30.4101 14.2593 30.3305 14.5098 30.3305V29.3305ZM12.8496 31.4945V33.6859H13.8496V31.4945H12.8496ZM13.3496 34.1859H15.7168V33.1859H13.3496V34.1859ZM16.2168 33.6859V31.4301H15.2168V33.6859H16.2168ZM16.2168 31.4301C16.2168 30.8361 16.114 30.2943 15.8113 29.9085L15.0246 30.5258C15.1204 30.6479 15.2168 30.9147 15.2168 31.4301H16.2168ZM15.8107 29.9077C15.4914 29.5024 15.027 29.3305 14.5098 29.3305V30.3305C14.7972 30.3305 14.9383 30.4163 15.0252 30.5266L15.8107 29.9077ZM13.4609 24.4141H12.9609V24.9141H13.4609V24.4141ZM17 24.4141H17.5V23.9141H17V24.4141ZM17 26.1426V26.6426H17.5V26.1426H17ZM8.74414 26.1426H8.24414V26.6426H8.74414V26.1426ZM8.74414 24.4141V23.9141H8.24414V24.4141H8.74414ZM12.0313 24.4141V24.9141H12.5313V24.4141H12.0313ZM12.0313 20.8164H12.5313V20.3164H12.0313V20.8164ZM8.74414 20.8164H8.24414V21.3164H8.74414V20.8164ZM8.74414 19.0879V18.5879H8.24414V19.0879H8.74414ZM17 19.0879H17.5V18.5879H17V19.0879ZM17 20.8164V21.3164H17.5V20.8164H17ZM13.4609 20.8164V20.3164H12.9609V20.8164H13.4609ZM13.4609 24.9141H17V23.9141H13.4609V24.9141ZM16.5 24.4141V26.1426H17.5V24.4141H16.5ZM17 25.6426H8.74414V26.6426H17V25.6426ZM9.24414 26.1426V24.4141H8.24414V26.1426H9.24414ZM8.74414 24.9141H12.0313V23.9141H8.74414V24.9141ZM12.5313 24.4141V20.8164H11.5313V24.4141H12.5313ZM12.0313 20.3164H8.74414V21.3164H12.0313V20.3164ZM9.24414 20.8164V19.0879H8.24414V20.8164H9.24414ZM8.74414 19.5879H17V18.5879H8.74414V19.5879ZM16.5 19.0879V20.8164H17.5V19.0879H16.5ZM17 20.3164H13.4609V21.3164H17V20.3164ZM12.9609 20.8164V24.4141H13.9609V20.8164H12.9609ZM10.6426 11.3395L10.6653 10.84L10.3978 11.7755L10.6426 11.3395ZM17 14.9078H17.5V14.6151L17.2447 14.4718L17 14.9078ZM17 16.8766V17.3766H17.5V16.8766H17ZM8.74414 16.8766H8.24414V17.3766H8.74414V16.8766ZM8.74414 15.3414V14.8414H8.24414V15.3414H8.74414ZM15.1543 15.3883L15.1305 15.8877L15.3987 14.9521L15.1543 15.3883ZM8.74414 11.7965H8.24414V12.0895L8.49973 12.2327L8.74414 11.7965ZM8.74414 9.85117V9.35117H8.24414V9.85117H8.74414ZM17 9.85117H17.5V9.35117H17V9.85117ZM17 11.3863V11.8863H17.5V11.3863H17ZM11.5332 11.3746L11.5491 10.8749L11.5488 10.8749L11.5332 11.3746ZM10.3978 11.7755L16.7553 15.3438L17.2447 14.4718L10.8873 10.9034L10.3978 11.7755ZM16.5 14.9078V16.8766H17.5V14.9078H16.5ZM17 16.3766H8.74414V17.3766H17V16.3766ZM9.24414 16.8766V15.3414H8.24414V16.8766H9.24414ZM8.74414 15.8414H13.543V14.8414H8.74414V15.8414ZM13.543 15.8414C13.744 15.8414 13.9773 15.8452 14.2433 15.8529L14.2723 14.8533C13.9993 14.8454 13.756 14.8414 13.543 14.8414V15.8414ZM14.2433 15.8529C14.5092 15.8606 14.8048 15.8722 15.1305 15.8877L15.1781 14.8888C14.8475 14.8731 14.5455 14.8613 14.2723 14.8533L14.2433 15.8529ZM15.3987 14.9521L8.98855 11.3603L8.49973 12.2327L14.9099 15.8245L15.3987 14.9521ZM9.24414 11.7965V9.85117H8.24414V11.7965H9.24414ZM8.74414 10.3512H17V9.35117H8.74414V10.3512ZM16.5 9.85117V11.3863H17.5V9.85117H16.5ZM17 10.8863H12.1309V11.8863H17V10.8863ZM12.1309 10.8863C11.986 10.8863 11.7927 10.8826 11.5491 10.8749L11.5173 11.8744C11.7659 11.8823 11.971 11.8863 12.1309 11.8863V10.8863ZM11.5488 10.8749C11.3019 10.8671 11.0075 10.8555 10.6653 10.84L10.6199 11.8389C10.9652 11.8546 11.2645 11.8665 11.5176 11.8744L11.5488 10.8749ZM16.5664 6.93672L16.9829 7.21341L16.9851 7.21003L16.5664 6.93672ZM14.8438 8.17891L14.3722 8.34504L14.5375 8.81431L15.0075 8.65132L14.8438 8.17891ZM14.2988 6.63203L14.1296 6.16154L13.6622 6.32966L13.8272 6.79816L14.2988 6.63203ZM15.4707 3.56172L15.8629 3.25151L15.86 3.24796L15.4707 3.56172ZM13.7363 3.63789L14.1708 3.8854L14.1744 3.87885L13.7363 3.63789ZM13.4727 5.43672V5.93672H13.9727V5.43672H13.4727ZM12.1426 5.43672H11.6426V5.93672H12.1426V5.43672ZM10.1797 3.72578L10.5726 4.03499L10.575 4.03187L10.1797 3.72578ZM10.2617 5.75899L10.6432 5.43577L10.6406 5.43273L10.2617 5.75899ZM11.3457 6.40352L11.8332 6.51449L11.9363 6.06156L11.4922 5.92546L11.3457 6.40352ZM10.9883 7.97383L10.8284 8.44758L11.3529 8.6246L11.4758 8.0848L10.9883 7.97383ZM9.64063 2.06758L9.94295 2.46588L9.94826 2.46174L9.64063 2.06758ZM12.7461 3.33321L12.2614 3.45613L13.2409 3.40529L12.7461 3.33321ZM13.3789 1.96797L13.724 2.32985L13.7261 2.32774L13.3789 1.96797ZM15.9629 1.88008L15.6719 2.28666L15.6727 2.28724L15.9629 1.88008ZM16.8184 2.99922L17.2802 2.80771L17.2795 2.80586L16.8184 2.99922ZM16.6172 4.71016C16.6172 5.56996 16.4455 6.20723 16.1477 6.66341L16.9851 7.21003C17.4217 6.54122 17.6172 5.69411 17.6172 4.71016H16.6172ZM16.1499 6.66004C15.8521 7.10841 15.3779 7.46449 14.68 7.7065L15.0075 8.65132C15.8643 8.35426 16.5386 7.88222 16.9829 7.2134L16.1499 6.66004ZM15.3153 8.01278L14.7704 6.4659L13.8272 6.79816L14.3722 8.34504L15.3153 8.01278ZM14.4681 7.10253C15.0256 6.90199 15.4862 6.60567 15.8066 6.19034C16.1306 5.77018 16.2813 5.26686 16.2813 4.71016H15.2813C15.2813 5.07924 15.1848 5.35912 15.0147 5.57958C14.841 5.80488 14.5603 6.00661 14.1296 6.16154L14.4681 7.10253ZM16.2813 4.71016C16.2813 4.14845 16.1675 3.6366 15.8628 3.25152L15.0786 3.87192C15.188 4.01028 15.2813 4.26406 15.2813 4.71016H16.2813ZM15.86 3.24796C15.5413 2.85251 15.0943 2.66914 14.5859 2.66914V3.66914C14.8354 3.66914 14.9783 3.7475 15.0814 3.87548L15.86 3.24796ZM14.5859 2.66914C14.0327 2.66914 13.5688 2.90494 13.2982 3.39693L14.1744 3.87885C14.2476 3.74584 14.3501 3.66914 14.5859 3.66914V2.66914ZM13.3019 3.39042C13.0601 3.81482 12.9727 4.40698 12.9727 5.09102H13.9727C13.9727 4.45475 14.061 4.07816 14.1708 3.88537L13.3019 3.39042ZM12.9727 5.09102V5.43672H13.9727V5.09102H12.9727ZM13.4727 4.93672H12.1426V5.93672H13.4727V4.93672ZM12.6426 5.43672V5.09102H11.6426V5.43672H12.6426ZM12.6426 5.09102C12.6426 4.46724 12.547 3.91145 12.2774 3.50703L11.4453 4.06173C11.5507 4.21981 11.6426 4.53511 11.6426 5.09102H12.6426ZM12.2774 3.50703C11.9815 3.06326 11.5217 2.8625 10.9941 2.8625V3.8625C11.2478 3.8625 11.3661 3.94299 11.4453 4.06173L12.2774 3.50703ZM10.9941 2.8625C10.512 2.8625 10.0825 3.0346 9.78433 3.4197L10.575 4.03187C10.6519 3.93259 10.7653 3.8625 10.9941 3.8625V2.8625ZM9.78675 3.41659C9.50723 3.77182 9.39844 4.22517 9.39844 4.71602H10.3984C10.3984 4.36312 10.4771 4.15632 10.5726 4.03498L9.78675 3.41659ZM9.39844 4.71602C9.39844 5.23501 9.55335 5.70263 9.88283 6.08525L10.6406 5.43273C10.4857 5.25285 10.3984 5.02515 10.3984 4.71602H9.39844ZM9.88023 6.0822C10.1995 6.45905 10.6564 6.71523 11.1992 6.88157L11.4922 5.92546C11.0663 5.79493 10.8005 5.62142 10.6432 5.43578L9.88023 6.0822ZM10.8582 6.29255L10.5008 7.86286L11.4758 8.0848L11.8332 6.51449L10.8582 6.29255ZM11.1482 7.50008C10.4369 7.26004 9.94299 6.90684 9.62337 6.4619C9.30377 6.017 9.12695 5.43663 9.12695 4.68672H8.12695C8.12695 5.59697 8.34369 6.39453 8.8112 7.04533C9.27869 7.6961 9.96549 8.15637 10.8284 8.44758L11.1482 7.50008ZM9.12695 4.68672C9.12695 4.13266 9.20803 3.67153 9.35625 3.29275L8.425 2.92835C8.22166 3.44801 8.12695 4.03766 8.12695 4.68672H9.12695ZM9.35625 3.29275C9.50477 2.91319 9.70458 2.64676 9.94292 2.46585L9.33833 1.66932C8.92824 1.98059 8.62804 2.40947 8.425 2.92835L9.35625 3.29275ZM9.94826 2.46174C10.1738 2.28574 10.4422 2.19258 10.7773 2.19258V1.19258C10.2375 1.19258 9.74811 1.34942 9.33299 1.67342L9.94826 2.46174ZM10.7773 2.19258C11.1842 2.19258 11.4862 2.30214 11.7188 2.49417L12.3554 1.72302C11.9162 1.36036 11.3783 1.19258 10.7773 1.19258V2.19258ZM11.7188 2.49417C11.9526 2.68721 12.1436 2.99143 12.2614 3.45613L13.2307 3.21029C13.0752 2.59686 12.7935 2.08467 12.3554 1.72302L11.7188 2.49417ZM13.2409 3.40529C13.3153 2.89427 13.4894 2.55344 13.7239 2.32984L13.0339 1.6061C12.5965 2.02313 12.3487 2.59245 12.2513 3.26112L13.2409 3.40529ZM13.7261 2.32774C13.9588 2.10324 14.2554 1.98164 14.6563 1.98164V0.981644C14.0259 0.981644 13.4709 1.18427 13.0317 1.6082L13.7261 2.32774ZM14.6563 1.98164C15.0624 1.98164 15.3938 2.08762 15.6719 2.28666L16.2539 1.4735C15.7898 1.14129 15.2501 0.981644 14.6563 0.981644V1.98164ZM15.6727 2.28724C15.9524 2.48659 16.1841 2.77961 16.3573 3.19259L17.2795 2.80586C17.0464 2.25009 16.7078 1.79701 16.2531 1.47292L15.6727 2.28724ZM16.3565 3.19073C16.5248 3.59654 16.6172 4.09872 16.6172 4.71016H17.6172C17.6172 4.00128 17.5104 3.36284 17.2802 2.80771L16.3565 3.19073Z" fill="#FF6633"/>
</svg>
